<svg width="377" height="297" viewBox="0 0 377 297" fill="none" xmlns="http://www.w3.org/2000/svg">
<g filter="url(#filter0_dd_159_568)">
<path d="M164.845 270.418C118.839 263.595 77.3833 243.908 48.1135 214.982C17.5969 184.822 3.75247 148.249 9.13851 111.985C14.5246 75.7213 38.3955 44.7388 76.3549 24.7435C112.772 5.55773 158.161 -1.2402 204.155 5.58339C250.161 12.407 291.617 32.0939 320.887 61.0203C351.403 91.1803 365.247 127.753 359.861 164.017C354.475 200.281 330.605 231.263 292.645 251.258C256.228 270.431 210.839 277.242 164.845 270.418Z" fill="#D85155"/>
<path d="M164.845 270.418C118.839 263.595 77.3833 243.908 48.1135 214.982C17.5969 184.822 3.75247 148.249 9.13851 111.985C14.5246 75.7213 38.3955 44.7388 76.3549 24.7435C112.772 5.55773 158.161 -1.2402 204.155 5.58339C250.161 12.407 291.617 32.0939 320.887 61.0203C351.403 91.1803 365.247 127.753 359.861 164.017C354.475 200.281 330.605 231.263 292.645 251.258C256.228 270.431 210.839 277.242 164.845 270.418Z" fill="url(#paint0_radial_159_568)" fill-opacity="0.2"/>
<path d="M167.057 255.499C78.5917 242.379 14.4476 178.988 24.0627 114.196C33.6779 49.4036 113.479 7.38253 201.944 20.5028C290.409 33.6232 354.553 97.0144 344.938 161.806C335.322 226.598 255.521 268.619 167.057 255.499ZM201.52 23.4071C114.649 10.5181 36.3388 51.4467 26.955 114.632C17.5712 177.831 80.6099 239.732 167.494 252.621C254.365 265.51 332.674 224.581 342.058 161.395C351.442 98.1967 288.403 36.2961 201.52 23.4071Z" fill="#293329"/>
<path d="M173.6 211.473C108.196 201.771 59.8755 160.92 65.8914 120.402C71.9073 79.8848 130.01 54.8264 195.414 64.5285C260.818 74.2306 309.138 115.082 303.122 155.6C297.106 196.117 239.003 221.176 173.6 211.473ZM194.977 67.4327C131.167 57.9619 74.5554 81.9281 68.7708 120.839C62.9863 159.763 110.201 199.124 174.024 208.595C237.834 218.066 294.445 194.1 300.23 155.189C306.014 116.264 258.799 76.9035 194.99 67.4327H194.977Z" fill="#293329"/>
<path d="M147.878 35.7563L155.487 35.2937C156.747 35.2166 157.788 35.3451 158.624 35.6664C160.218 36.2832 161.066 37.5554 161.182 39.4701C161.246 40.4724 161.092 41.3078 160.706 41.9632C160.334 42.6314 159.781 43.171 159.061 43.6079C159.729 43.8263 160.244 44.1476 160.604 44.5588C160.964 44.97 161.182 45.6641 161.285 46.6279L161.503 48.8638C161.568 49.5064 161.645 49.969 161.748 50.2774C161.915 50.8042 162.185 51.1255 162.545 51.254L162.57 51.6266L159.794 51.7936C159.704 51.6523 159.64 51.4725 159.575 51.2411C159.511 51.0098 159.447 50.5729 159.382 49.9304L159.074 47.1546C158.958 46.0623 158.521 45.3555 157.75 45.0343C157.313 44.8544 156.644 44.7903 155.745 44.8545L150.731 45.1629L151.168 52.3463L148.906 52.4876L147.878 35.7563ZM155.719 42.9654C156.747 42.9011 157.557 42.6441 158.136 42.1815C158.714 41.7189 158.971 40.9351 158.894 39.8299C158.817 38.6348 158.354 37.851 157.48 37.4655C157.017 37.2599 156.4 37.1827 155.655 37.2341L150.269 37.5682L150.616 43.2866L155.719 42.9782V42.9654Z" fill="#293329"/>
<path d="M183.754 37.9409C184.796 39.4701 185.259 41.3977 185.143 43.7108C185.027 46.2166 184.282 48.2597 182.932 49.8532C181.351 51.7293 179.178 52.6032 176.415 52.4618C173.844 52.3333 171.851 51.3824 170.463 49.6091C169.229 47.9 168.676 45.7924 168.792 43.2866C168.895 41.0249 169.563 39.1102 170.759 37.5553C172.301 35.5635 174.487 34.6254 177.315 34.7667C180.271 34.9081 182.418 35.962 183.742 37.9409H183.754ZM181.235 48.5168C182.199 47.129 182.726 45.4969 182.816 43.6336C182.906 41.6675 182.469 40.0483 181.505 38.8018C180.528 37.5553 179.153 36.8872 177.366 36.7972C175.63 36.7073 174.191 37.2341 173.034 38.3778C171.877 39.5215 171.247 41.2435 171.131 43.5694C171.041 45.4199 171.44 47.0133 172.314 48.3369C173.188 49.6605 174.679 50.3673 176.787 50.4701C178.793 50.5729 180.271 49.9175 181.235 48.5297V48.5168Z" fill="#293329"/>
<path d="M193.498 36.5788L195.748 36.8872L193.73 51.5239L202.06 52.6676L201.789 54.6466L191.197 53.1816L193.486 36.5788H193.498Z" fill="#293329"/>
<path d="M211.597 39.5087L213.808 40.0099L210.531 54.4152L218.732 56.2785L218.282 58.2318L207.857 55.8545L211.585 39.5087H211.597Z" fill="#293329"/>
<path d="M229.632 44.0578L231.831 44.7259L226.997 60.7761L224.799 60.1209L229.632 44.0705V44.0578Z" fill="#293329"/>
<path d="M240.507 47.5145L251.845 51.9223L251.099 53.837L241.819 50.2259L239.968 54.9678L248.541 58.3089L247.835 60.1209L239.26 56.7796L237.204 62.074L246.639 65.7492L245.919 67.6127L234.414 63.1407L240.494 47.5145H240.507Z" fill="#293329"/>
<path d="M325.81 158.449C326.333 154.925 324.639 151.753 322.027 151.366C319.414 150.978 316.873 153.521 316.349 157.045C315.826 160.57 317.52 163.74 320.132 164.128C322.745 164.515 325.287 161.973 325.81 158.449Z" fill="#293329"/>
<path d="M51.6598 117.77C52.1829 114.246 50.489 111.075 47.8767 110.688C45.2643 110.3 42.7226 112.843 42.1995 116.367C41.6764 119.891 43.3701 123.062 45.9824 123.45C48.5948 123.837 51.1367 121.294 51.6598 117.77Z" fill="#293329"/>
<path d="M67.3569 166.446L68.7194 168.257L56.919 177.137L61.9836 183.858L60.3896 185.053L53.9624 176.52L67.3697 166.446H67.3569Z" fill="#293329"/>
<path d="M79.1958 180.735L72.0745 188.266C71.2389 189.152 70.7117 190.039 70.4932 190.951C70.159 192.301 70.5705 193.534 71.7531 194.652C73.1671 195.989 74.581 196.413 75.9821 195.937C76.7405 195.68 77.5504 195.102 78.373 194.228L85.4945 186.698L87.1657 188.278L80.6998 195.128C79.2858 196.631 77.9875 197.582 76.8177 198.006C74.6838 198.777 72.5885 198.186 70.5189 196.233C68.4494 194.28 67.7423 192.224 68.3979 190.052C68.7578 188.857 69.6449 187.52 71.0589 186.017L77.5248 179.167L79.1958 180.748V180.735Z" fill="#293329"/>
<path d="M84.0549 207.014L81.8182 205.46L91.6005 201.784L91.6904 191.902L94.0171 193.521L93.8243 201.206L100.933 198.327L103.144 199.87L93.9144 203.403L93.7986 213.799L91.4977 212.193L91.7676 203.982L84.0549 207.027V207.014Z" fill="#293329"/>
<path d="M110.471 204.046L105.702 213.247C105.136 214.326 104.879 215.329 104.918 216.254C104.969 217.642 105.702 218.721 107.142 219.467C108.864 220.366 110.342 220.379 111.564 219.531C112.232 219.068 112.836 218.297 113.389 217.23L118.158 208.03L120.189 209.083L115.857 217.436C114.906 219.261 113.929 220.546 112.926 221.278C111.088 222.602 108.903 222.615 106.383 221.304C103.864 219.993 102.617 218.207 102.643 215.945C102.655 214.699 103.144 213.17 104.095 211.332L108.427 202.979L110.471 204.033V204.046Z" fill="#293329"/>
<path d="M126.783 211.975L133.918 214.648C135.087 215.085 136 215.624 136.63 216.267C137.825 217.475 138.082 218.991 137.414 220.79C137.067 221.728 136.578 222.422 135.961 222.885C135.344 223.334 134.625 223.617 133.789 223.72C134.303 224.195 134.65 224.697 134.805 225.224C134.959 225.75 134.882 226.47 134.586 227.395L133.866 229.528C133.661 230.132 133.545 230.595 133.519 230.916C133.455 231.469 133.571 231.867 133.84 232.137L133.712 232.484L131.102 231.507C131.077 231.34 131.09 231.148 131.128 230.916C131.167 230.685 131.282 230.261 131.488 229.631L132.336 226.958C132.671 225.917 132.555 225.082 132.002 224.478C131.681 224.144 131.102 223.81 130.254 223.489L125.549 221.728L123.017 228.462L120.896 227.665L126.783 211.962V211.975ZM131 221.754C131.964 222.114 132.812 222.204 133.519 222.024C134.226 221.844 134.792 221.227 135.177 220.186C135.602 219.068 135.486 218.156 134.856 217.449C134.509 217.076 133.995 216.755 133.288 216.498L128.236 214.609L126.218 219.98L131 221.78V221.754Z" fill="#293329"/>
<path d="M144.137 218.207L146.708 218.875L149.356 227.884L156.04 221.291L158.624 221.959L149.96 230.055L148.263 236.596L146.065 236.031L147.762 229.49L144.137 218.207Z" fill="#293329"/>
<path d="M174.885 224.787L176.852 238.626L181.814 225.391L184.256 225.609L186.853 239.539L191.197 226.226L193.678 226.444L187.829 242.764L185.451 242.559L182.803 228.372L177.713 241.878L175.335 241.672L172.43 224.581L174.885 224.799V224.787Z" fill="#293329"/>
<path d="M203.242 226.187L205.813 226.123L212.343 242.726L209.849 242.79L208.011 237.817L201.378 237.997L199.694 243.06L197.368 243.124L203.229 226.2L203.242 226.187ZM207.24 235.979L204.502 228.642L201.995 236.121L207.24 235.979Z" fill="#293329"/>
<path d="M227.974 224.08L228.218 226.059L222.614 226.753L224.413 241.415L222.138 241.698L220.339 227.035L214.734 227.729L214.49 225.75L227.987 224.093L227.974 224.08Z" fill="#293329"/>
<path d="M245.212 221.471C246.6 222.281 247.526 223.36 247.989 224.722L245.842 225.249C245.341 224.26 244.659 223.54 243.798 223.103C242.937 222.666 241.857 222.602 240.559 222.923C238.978 223.309 237.846 224.183 237.152 225.545C236.458 226.907 236.394 228.757 236.959 231.083C237.422 232.985 238.245 234.437 239.402 235.401C240.559 236.365 242.024 236.648 243.76 236.223C245.354 235.838 246.42 234.913 246.947 233.461C247.23 232.69 247.346 231.751 247.307 230.621L249.454 230.094C249.686 231.854 249.403 233.448 248.619 234.861C247.68 236.57 246.125 237.688 243.952 238.215C242.076 238.678 240.366 238.485 238.823 237.65C236.78 236.545 235.366 234.412 234.594 231.237C234.003 228.834 234.157 226.714 235.031 224.864C235.982 222.859 237.654 221.561 240.045 220.983C242.088 220.482 243.798 220.649 245.186 221.458L245.212 221.471Z" fill="#293329"/>
<path d="M252.963 217.847L255.097 216.999L257.681 223.424L265.677 220.212L263.093 213.787L265.227 212.938L271.474 228.5L269.34 229.348L266.422 222.075L258.427 225.288L261.345 232.561L259.211 233.409L252.963 217.847Z" fill="#293329"/>
<path d="M271.5 209.79L281.912 203.493L282.979 205.254L274.456 210.407L277.091 214.763L284.958 209.996L285.961 211.653L278.094 216.421L281.038 221.278L289.702 216.035L290.73 217.744L280.176 224.131L271.487 209.79H271.5Z" fill="#293329"/>
<path d="M295.666 207.181C296.348 207.85 297.029 208.274 297.71 208.454C298.995 208.788 300.32 208.338 301.669 207.104C302.273 206.552 302.749 205.961 303.083 205.318C303.726 204.084 303.636 203.031 302.813 202.131C302.196 201.463 301.554 201.167 300.885 201.244C300.217 201.347 299.343 201.694 298.276 202.285L296.309 203.391C295.023 204.11 294.021 204.521 293.301 204.624C292.067 204.804 290.974 204.38 290.036 203.352C289.02 202.234 288.558 200.987 288.661 199.587C288.763 198.186 289.496 196.862 290.872 195.616C292.131 194.459 293.494 193.791 294.946 193.611C296.399 193.431 297.761 194.035 299.021 195.41L297.44 196.85C296.759 196.258 296.116 195.912 295.525 195.796C294.445 195.59 293.314 196.04 292.144 197.107C291.193 197.968 290.704 198.803 290.666 199.6C290.627 200.396 290.859 201.065 291.373 201.617C291.926 202.221 292.581 202.44 293.327 202.273C293.815 202.157 294.741 201.72 296.129 200.962L298.173 199.818C299.163 199.266 300.024 198.957 300.769 198.893C302.055 198.777 303.212 199.265 304.215 200.371C305.461 201.746 305.873 203.172 305.436 204.65C304.999 206.128 304.137 207.451 302.852 208.633C301.348 210.008 299.818 210.69 298.25 210.677C296.682 210.677 295.306 209.996 294.098 208.646L295.679 207.207L295.666 207.181Z" fill="#293329"/>
<path d="M160.359 103.542L166.568 104.468C167.596 104.622 168.406 104.892 169.036 105.303C170.206 106.074 170.682 107.243 170.45 108.811C170.334 109.634 170.064 110.276 169.64 110.752C169.229 111.227 168.689 111.574 168.033 111.793C168.535 112.088 168.895 112.435 169.113 112.833C169.332 113.232 169.396 113.823 169.306 114.62L169.1 116.457C169.036 116.984 169.023 117.37 169.062 117.639C169.113 118.089 169.268 118.398 169.538 118.565L169.486 118.873L167.211 118.539C167.172 118.411 167.134 118.256 167.134 118.064C167.134 117.871 167.134 117.511 167.198 116.971L167.429 114.671C167.519 113.771 167.288 113.129 166.722 112.731C166.401 112.512 165.874 112.345 165.141 112.242L161.041 111.638L160.167 117.498L158.316 117.228L160.346 103.568L160.359 103.542ZM165.45 110.687C166.298 110.816 166.992 110.739 167.532 110.456C168.072 110.186 168.419 109.595 168.548 108.683C168.689 107.706 168.445 106.999 167.815 106.537C167.468 106.293 166.992 106.126 166.375 106.036L161.979 105.38L161.285 110.045L165.45 110.662V110.687Z" fill="#293329"/>
<path d="M177.507 106.087L187.431 107.565L187.187 109.235L179.076 108.027L178.458 112.178L185.953 113.296L185.721 114.877L178.227 113.759L177.533 118.398L185.786 119.618L185.541 121.25L175.476 119.76L177.507 106.1V106.087Z" fill="#293329"/>
<path d="M197.445 109.043L199.54 109.351L202.471 123.756L200.44 123.461L199.656 119.156L194.244 118.359L192.161 122.24L190.259 121.957L197.432 109.055L197.445 109.043ZM199.296 117.562L198.113 111.214L195.015 116.92L199.296 117.55V117.562Z" fill="#293329"/>
<path d="M209.618 110.842L211.469 111.111L209.682 123.152L216.546 124.168L216.302 125.8L207.587 124.502L209.618 110.842Z" fill="#293329"/>
<path d="M150.834 122.895L153.032 135.116L158.637 124.052L160.706 124.36L153.688 137.288L151.721 136.992L148.777 122.587L150.821 122.895H150.834Z" fill="#293329"/>
<path d="M168.458 125.517L170.553 125.825L173.484 140.231L171.453 139.935L170.669 135.63L165.257 134.833L163.175 138.714L161.272 138.432L168.445 125.53L168.458 125.517ZM170.309 134.024L169.126 127.676L166.028 133.381L170.309 134.011V134.024Z" fill="#293329"/>
<path d="M180.631 127.316L182.482 127.586L180.695 139.627L187.56 140.642L187.315 142.274L178.6 140.976L180.631 127.316Z" fill="#293329"/>
<path d="M196.661 129.693L195.401 138.136C195.259 139.125 195.324 139.986 195.594 140.693C196.005 141.773 196.866 142.402 198.19 142.595C199.771 142.826 200.928 142.454 201.661 141.464C202.06 140.924 202.317 140.166 202.471 139.177L203.731 130.734L205.607 131.017L204.463 138.688C204.219 140.372 203.795 141.631 203.204 142.467C202.124 143.996 200.427 144.587 198.113 144.24C195.799 143.893 194.347 142.839 193.768 141.066C193.447 140.089 193.408 138.766 193.666 137.082L194.81 129.41L196.686 129.693H196.661Z" fill="#293329"/>
<path d="M212.035 131.981L221.958 133.458L221.714 135.129L213.603 133.921L212.986 138.072L220.48 139.19L220.249 140.77L212.754 139.652L212.06 144.291L220.313 145.512L220.069 147.144L210.004 145.653L212.035 131.993V131.981Z" fill="#293329"/>
<path d="M121.513 139.318L127.722 140.243C128.75 140.398 129.56 140.668 130.19 141.079C131.36 141.85 131.835 143.019 131.604 144.587C131.488 145.409 131.218 146.052 130.794 146.527C130.383 147.003 129.843 147.35 129.187 147.568C129.688 147.864 130.048 148.211 130.267 148.609C130.485 149.007 130.55 149.599 130.46 150.395L130.254 152.233C130.19 152.76 130.177 153.145 130.216 153.415C130.267 153.865 130.421 154.173 130.691 154.34L130.64 154.649L128.364 154.315C128.326 154.186 128.287 154.032 128.287 153.839C128.287 153.646 128.287 153.287 128.352 152.747L128.583 150.447C128.673 149.547 128.442 148.905 127.876 148.506C127.555 148.288 127.028 148.121 126.295 148.018L122.194 147.414L121.32 153.274L119.469 153.004L121.5 139.344L121.513 139.318ZM126.603 146.476C127.452 146.604 128.146 146.527 128.686 146.245C129.226 145.975 129.573 145.384 129.701 144.471C129.843 143.495 129.598 142.788 128.969 142.325C128.621 142.081 128.146 141.914 127.529 141.824L123.133 141.169L122.438 145.833L126.603 146.45V146.476Z" fill="#293329"/>
<path d="M138.661 141.863L148.585 143.34L148.34 145.011L140.229 143.803L139.612 147.954L147.106 149.072L146.875 150.652L139.381 149.534L138.687 154.173L146.939 155.394L146.695 157.026L136.63 155.536L138.661 141.875V141.863Z" fill="#293329"/>
<path d="M155.706 144.394L157.904 156.615L163.509 145.551L165.578 145.859L158.56 158.787L156.593 158.491L153.649 144.086L155.693 144.394H155.706Z" fill="#293329"/>
<path d="M170.951 146.656L180.875 148.134L180.631 149.804L172.52 148.596L171.903 152.747L179.397 153.865L179.166 155.445L171.671 154.328L170.977 158.967L179.23 160.187L178.986 161.819L168.921 160.329L170.951 146.669V146.656Z" fill="#293329"/>
<path d="M190.889 149.611L192.984 149.92L195.915 164.325L193.884 164.03L193.1 159.725L187.688 158.928L185.606 162.809L183.703 162.526L190.876 149.624L190.889 149.611ZM192.727 158.131L191.544 151.783L188.446 157.489L192.727 158.118V158.131Z" fill="#293329"/>
<path d="M203.049 151.41L204.9 151.68L203.114 163.721L209.978 164.736L209.734 166.368L201.018 165.07L203.049 151.41Z" fill="#293329"/>
<path d="M217.266 153.518L227.19 154.996L226.946 156.666L218.835 155.458L218.218 159.609L225.712 160.727L225.48 162.308L217.986 161.19L217.292 165.829L225.545 167.049L225.3 168.682L215.235 167.191L217.266 153.531V153.518Z" fill="#293329"/>
<path d="M233.309 155.908L238.772 156.718C240.623 156.988 241.973 157.874 242.795 159.352C243.528 160.689 243.76 162.295 243.477 164.184C243.258 165.636 242.795 166.908 242.088 168C240.829 169.928 239.042 170.725 236.728 170.378L231.278 169.568L233.309 155.908ZM236.625 168.746C237.242 168.836 237.757 168.849 238.168 168.771C238.913 168.63 239.556 168.257 240.109 167.628C240.546 167.127 240.906 166.458 241.202 165.623C241.369 165.122 241.484 164.647 241.549 164.21C241.806 162.513 241.664 161.151 241.15 160.123C240.636 159.082 239.646 158.465 238.181 158.247L234.967 157.771L233.412 168.27L236.638 168.746H236.625Z" fill="#293329"/>
</g>
<defs>
<filter id="filter0_dd_159_568" x="0" y="0" width="377" height="297" filterUnits="userSpaceOnUse" color-interpolation-filters="sRGB">
<feFlood flood-opacity="0" result="BackgroundImageFix"/>
<feColorMatrix in="SourceAlpha" type="matrix" values="0 0 0 0 0 0 0 0 0 0 0 0 0 0 0 0 0 0 127 0" result="hardAlpha"/>
<feOffset dx="4" dy="12"/>
<feGaussianBlur stdDeviation="6"/>
<feComposite in2="hardAlpha" operator="out"/>
<feColorMatrix type="matrix" values="0 0 0 0 0 0 0 0 0 0 0 0 0 0 0 0 0 0 0.32 0"/>
<feBlend mode="normal" in2="BackgroundImageFix" result="effect1_dropShadow_159_568"/>
<feColorMatrix in="SourceAlpha" type="matrix" values="0 0 0 0 0 0 0 0 0 0 0 0 0 0 0 0 0 0 127 0" result="hardAlpha"/>
<feOffset dx="2" dy="2"/>
<feGaussianBlur stdDeviation="2.5"/>
<feComposite in2="hardAlpha" operator="out"/>
<feColorMatrix type="matrix" values="0 0 0 0 0 0 0 0 0 0 0 0 0 0 0 0 0 0 0.55 0"/>
<feBlend mode="normal" in2="effect1_dropShadow_159_568" result="effect2_dropShadow_159_568"/>
<feBlend mode="normal" in="SourceGraphic" in2="effect2_dropShadow_159_568" result="shape"/>
</filter>
<radialGradient id="paint0_radial_159_568" cx="0" cy="0" r="1" gradientUnits="userSpaceOnUse" gradientTransform="translate(41.5 17.5) rotate(44.4665) scale(189.866 248.233)">
<stop stop-color="white"/>
<stop offset="1" stop-color="white" stop-opacity="0"/>
</radialGradient>
</defs>
</svg>
