<svg width="141" height="76" viewBox="0 0 141 76" fill="none" xmlns="http://www.w3.org/2000/svg">
<path fill-rule="evenodd" clip-rule="evenodd" d="M0.410992 52.4576C5.73459 52.4787 11.2081 51.8258 16.5098 51.8954C19.508 51.942 22.7228 52.5305 23.6288 55.8904C24.7077 59.9131 22.1014 62.0662 18.7037 63.2278C18.1815 63.4053 18.7764 63.4963 18.9378 63.6022C20.5746 64.6357 21.5167 65.6537 21.7929 67.6901C21.9406 68.7598 21.5846 72.5537 23.7192 71.5795C24.0917 71.407 24.6748 70.4951 24.6617 70.1214L24.6004 68.3641L26.5225 68.2969L26.6433 71.7565C26.6718 72.5756 26.1865 74.0414 25.6085 74.6507C24.2697 76.0587 20.8669 75.9468 19.222 75.1365C15.3059 73.1953 18.3739 67.3401 14.8635 65.2652C14.5736 65.0923 13.5092 64.6355 13.2254 64.6452L9.79869 64.7649L10.0506 71.9775C10.0622 72.3036 10.8434 72.9846 11.1112 72.9753L13.631 72.8873L13.8189 73.0642L13.895 75.2424L13.7199 75.432L0.810849 75.8828L0.721984 73.3381L3.7856 73.2311C4.13215 73.219 4.83999 72.4696 4.76986 72.0422L4.21921 56.2735C4.29721 55.5783 3.49716 55.033 2.91439 55.0533L0.094606 55.1518L0.00769383 52.663L2.10715e-06 52.6632L0.410992 52.4576ZM9.70107 61.7267L14.2061 61.5694C14.5842 61.5562 15.6083 61.2981 15.9973 61.1492C18.4242 60.1887 18.5803 56.3138 16.365 55.2048C15.8992 54.9663 14.5787 54.6382 14.0825 54.6556L9.45977 54.817L9.70107 61.7267Z" fill="#98E090"/>
<path fill-rule="evenodd" clip-rule="evenodd" d="M41.3874 50.4614C50.3986 49.4941 57.3547 56.5282 55.3495 65.7221C54.004 71.9072 48.6135 74.7071 42.6704 74.7873C25.9681 75.0123 25.8627 52.1265 41.3789 50.4617L41.3874 50.4614ZM48.8523 67.095C50.4757 61.6484 49.1274 52.3887 41.619 53.4786L41.6109 53.4874C35.4677 54.3789 35.2992 62.8709 37.0202 67.4444C39.3847 73.7311 46.9385 73.4913 48.8523 67.095Z" fill="#98E090"/>
<path d="M106.897 48.9303L107.206 57.7806L107.032 57.9702L104.929 58.0436C104.775 55.8994 104.293 53.1693 102.122 52.2101C101.658 52.0034 100.297 51.6527 99.8324 51.6689L93.0429 51.906L93.2928 59.0627L95.3965 58.9892C95.5471 58.9834 96.33 58.6301 96.5153 58.5202C97.8363 57.7336 97.8339 56.3004 97.722 54.9031L100.242 54.8151L100.631 65.9718L98.1116 66.0598L98.0461 64.1829C98.0211 63.4752 97.0651 62.5218 96.4108 62.2978C96.2592 62.2474 95.3442 62.0248 95.2654 62.0276L93.4071 62.0925L93.6864 70.0917L101.074 69.8337C101.429 69.8212 102.575 69.232 102.897 68.9739C104.845 67.4011 105.211 64.538 105.073 62.1702L107.176 62.0968L107.363 62.2737L107.702 71.9752L107.528 72.164L84.4655 72.9693L84.2784 72.7932L84.2001 70.5505C85.4562 70.3873 88.1624 70.8974 88.3448 69.1159L87.6752 52.874C87.5496 52.4405 86.7576 52.1255 86.3796 52.1387L83.5605 52.2371L83.4736 49.7483L83.648 49.5587L106.71 48.7533L106.897 48.9303Z" fill="#98E090"/>
<path d="M71.7039 50.0955L71.7927 52.6403L69.2091 52.7305C68.7207 52.7477 67.8515 53.3752 67.871 53.9318L68.4658 70.9647L75.1291 70.732C75.2236 70.7287 75.9017 70.4894 76.0573 70.4282C79.0291 69.2734 78.6016 65.6025 78.6512 62.9576L81.1718 62.8696L81.5275 73.0556L59.6707 73.8189L59.586 71.3937L61.5705 71.3244C61.61 71.323 62.2664 71.1492 62.344 71.1147C62.9353 70.887 63.1103 70.4904 63.144 69.8762C63.4442 64.9216 62.4105 59.2574 62.5976 54.2271C62.6038 53.5024 61.8285 52.9805 61.1748 53.0033L58.9542 53.0808L58.8653 50.5361L71.719 50.0872L71.7039 50.0955Z" fill="#98E090"/>
<path d="M125.987 48.1999L126.076 50.7447C121.45 50.6116 125.875 54.247 127.045 55.679L130.412 51.5962C130.609 50.244 129.087 50.6792 128.235 50.6693L128.146 48.1245L139.912 47.7136L140.001 50.2584L137.055 50.3612C136.921 50.3663 136.144 50.6556 135.965 50.7414C134.865 51.2974 130.556 56.408 129.614 57.659C129.508 57.7982 129.199 58.1913 129.227 58.3256L138.089 67.9914C138.819 68.571 139.755 68.4991 140.636 68.4444L140.719 70.8059L140.545 70.9947L127.517 71.4496L127.428 68.9056L130.011 68.8154C130.468 68.7995 131.101 67.7423 130.715 67.3019L125.922 61.9118L121.365 67.5803C121.079 67.9644 121.355 69.1092 121.851 69.0918L125.033 68.9807L125.122 71.5255L113.473 71.9323L113.384 69.3875C114.22 69.3902 115.033 69.394 115.706 68.8213L123.831 59.6204L117.285 52.1425C115.981 51.1531 114.291 51.3076 112.749 51.2023L112.66 48.6575L125.995 48.1919L125.987 48.1999Z" fill="#98E090"/>
<path fill-rule="evenodd" clip-rule="evenodd" d="M69.5703 0.290507C72.0951 -1.02341 74.2191 2.44521 72.0795 4.17589C71.8724 4.3423 71.3648 4.47166 71.3307 4.632L74.7971 28.4757L74.7979 28.499L79.4416 6.55452C76.0563 5.3591 78.6072 0.517088 81.3939 2.40993C83.2759 3.68964 82.4347 6.23431 80.4035 6.77517L79.6233 28.9362L86.7202 12.2078C86.7614 11.8083 86.2514 11.6427 86.0515 11.3393C84.4672 8.87882 88.2123 6.16044 89.8904 8.82457C90.9673 10.5305 89.6604 12.3992 87.817 12.4556L81.8908 36.0457C80.654 39.6954 74.3887 40.7108 71.0745 40.6515C68.5967 40.6027 64.2739 39.8937 62.8301 37.6195L54.0353 14.3047C52.126 14.7295 50.6305 12.7749 51.5137 10.9686C52.8095 8.32824 57.0863 10.2092 55.4913 13.3061C55.388 13.5087 55.0331 13.7359 55.0632 13.9259L64.6155 29.5792L61.2022 7.47757C58.0038 7.79626 57.8563 2.89743 60.9778 2.86008C62.8775 2.84177 63.9838 5.16744 62.7909 6.68191C62.5945 6.92753 62.1816 7.06135 62.1834 7.34767L69.1332 28.1954L70.3368 4.61928C68.1415 4.30582 67.5952 1.31487 69.5703 0.290507ZM77.9538 35.0924C76.4034 34.0559 72.4858 34.1133 70.6461 34.2731L70.6459 34.2653C69.364 34.3738 66.0201 34.8011 65.1961 35.817C64.5078 36.6531 65.0623 37.4056 65.8288 37.9043C68.3695 39.5272 75.4553 39.4314 77.8169 37.502C78.6448 36.8202 78.9631 35.7657 77.9538 35.0924Z" fill="#98E090"/>
</svg>
