<svg width="171" height="94" viewBox="0 0 171 94" fill="none" xmlns="http://www.w3.org/2000/svg">
<path d="M60.314 79.8504C63.2592 79.7476 64.7775 81.5273 65.3571 82.3294L64.1821 83.5239C64.1735 83.5089 62.8558 81.2058 60.3644 81.2928C57.9054 81.3787 56.0344 83.6694 56.1581 87.2119C56.2752 90.5665 58.4386 92.4671 60.6707 92.3892C62.6112 92.3214 63.8658 90.9563 63.9515 90.8551L63.8533 88.0438L59.7859 88.1859L59.7346 86.7148L65.4627 86.5148L65.6336 91.41C64.5686 92.5027 63.2126 93.7445 60.4458 93.8412C57.3386 93.9497 54.4385 91.3957 54.2918 87.1953C54.1526 83.2073 56.6843 79.9772 60.314 79.8504Z" fill="#98E090"/>
<path d="M85.2913 89.4839L84.9357 79.3015L86.5559 79.245L87.0272 92.7411L85.2974 92.8015L78.8437 81.9811L79.229 93.0134L77.6084 93.07L77.1372 79.5739L79.3449 79.4968L85.2913 89.4839Z" fill="#98E090"/>
<path d="M102.747 89.7908L106.404 78.482L108.146 78.4212L103.542 92.0989L101.917 92.1557L97.1791 80.2935L91.0862 80.5063L91.234 84.7394L95.9656 84.5742L96.018 86.0737L91.2864 86.239L91.4534 91.0197L96.4036 90.8468L97.3025 92.3127L89.804 92.5746L89.3327 79.0782L98.4681 78.7592L102.747 89.7908Z" fill="#98E090"/>
<path d="M74.5454 81.0839L69.4774 81.2609L69.6253 85.4981L74.3571 85.3329L74.4091 86.8201L69.6732 86.9855L69.8404 91.7745L74.7991 91.6013L75.6898 93.0674L68.1951 93.3292L67.7238 79.8328L75.336 79.567L74.5454 81.0839Z" fill="#98E090"/>
<path d="M116.438 79.621L111.374 79.7978L111.522 84.0351L116.258 83.8697L116.31 85.3569L111.57 85.5224L111.737 90.3114L116.696 90.1382L117.587 91.6044L110.096 91.8659L109.625 78.3696L117.233 78.1039L116.438 79.621Z" fill="#98E090"/>
<path fill-rule="evenodd" clip-rule="evenodd" d="M6.34419 53.1385C7.30025 53.1052 9.00943 53.2704 10.1929 54.174C11.8182 55.4182 12.1607 57.0919 12.2004 58.2278C12.24 59.3637 12.0177 60.8935 10.9537 62.0189C9.56526 63.491 8.06572 63.7601 5.95109 63.834L2.71005 63.9471L2.98587 71.8456L0.648377 71.9272L-2.92653e-06 53.3601L6.34419 53.1385ZM2.64098 61.9695L5.88203 61.8563C5.89176 61.8556 6.47122 61.8152 6.76447 61.8049C7.74882 61.7705 8.39355 61.5313 8.99323 60.9336C9.60057 60.3233 9.84241 59.3534 9.80733 58.3483C9.81073 57.4014 9.45203 56.4892 8.80585 55.8018C8.14109 55.1173 6.94365 55.0936 6.73705 55.1008L2.40641 55.252L2.64098 61.9695Z" fill="#98E090"/>
<path fill-rule="evenodd" clip-rule="evenodd" d="M27.325 70.9957L24.7324 71.0862L22.9004 66.7112L14.6036 67.001L13.0773 71.4932L10.6751 71.5771L17.2982 52.7519L19.5264 52.6741L27.325 70.9957ZM15.2949 64.96L22.0726 64.7234L18.386 55.9132L15.2949 64.96Z" fill="#98E090"/>
<path d="M37.577 54.1016L31.9743 54.2972L32.551 70.8132L30.2135 70.8948L29.6368 54.3789L24.0139 54.5752L23.9421 52.5199L37.5052 52.0462L37.577 54.1016Z" fill="#98E090"/>
<path d="M48.8312 53.7086L41.8712 53.9516L42.0741 59.7619L48.5801 59.5348L48.652 61.5942L42.146 61.8214L42.3762 68.4122L49.1822 68.1746L50.4205 70.1892L40.1145 70.5491L39.466 51.9778L49.9219 51.6126L48.8312 53.7086Z" fill="#98E090"/>
<path fill-rule="evenodd" clip-rule="evenodd" d="M79.8642 50.5711C80.8202 50.5378 82.5376 50.7027 83.721 51.6063C85.3423 52.8507 85.6848 54.5244 85.7244 55.6603C85.7641 56.7962 85.5415 58.326 84.4775 59.4514C83.085 60.9235 81.5856 61.1927 79.4711 61.2666L76.23 61.3798L76.5058 69.2782L74.1684 69.3599L73.52 50.7927L79.8642 50.5711ZM76.161 59.4021L79.402 59.2889C79.4119 59.2882 79.9912 59.2478 80.2844 59.2376C81.2769 59.2029 81.9216 58.9637 82.5132 58.3662C83.1205 57.7559 83.3624 56.7861 83.3273 55.7809C83.3317 54.8331 82.9712 53.9201 82.3217 53.2346C81.6651 52.5498 80.4636 52.5262 80.2489 52.5337L75.9264 52.6847L76.161 59.4021Z" fill="#98E090"/>
<path d="M90.8209 58.162L99.0932 57.8732L98.815 49.9053L101.149 49.8238L101.797 68.395L99.4635 68.4765L99.1649 59.9244L90.8925 60.2133L91.1912 68.7654L88.8578 68.8469L88.2092 50.2756L90.5427 50.1941L90.8209 58.162Z" fill="#98E090"/>
<path d="M114.531 65.8925L122.508 65.614L122.579 67.6693L112.269 68.0294L111.621 49.4581L113.954 49.3766L114.531 65.8925Z" fill="#98E090"/>
<path fill-rule="evenodd" clip-rule="evenodd" d="M136.527 48.5924C137.491 48.5588 139.193 48.7242 140.376 49.6279C142.006 50.872 142.344 52.5458 142.383 53.6817C142.423 54.8176 142.205 56.3472 141.137 57.4728C139.752 58.9447 138.245 59.2142 136.134 59.2879L132.893 59.401L133.169 67.2995L130.835 67.381L130.187 48.8138L136.527 48.5924ZM132.824 57.4234L136.065 57.3102C136.065 57.3102 136.644 57.2695 136.948 57.2588C137.932 57.2245 138.581 56.9851 139.172 56.3876C139.784 55.7772 140.022 54.8075 139.987 53.8024C139.992 52.8549 139.633 51.9419 138.985 51.2559C138.32 50.5714 137.119 50.5478 136.912 50.555L132.59 50.7059L132.824 57.4234Z" fill="#98E090"/>
<path fill-rule="evenodd" clip-rule="evenodd" d="M151.111 48.0831C152.067 48.0498 153.777 48.2149 154.96 49.1186C156.59 50.3627 156.928 52.0365 156.968 53.1724C157.007 54.3083 156.789 55.838 155.721 56.9635C154.337 58.4355 152.833 58.7047 150.722 58.7784L147.477 58.8918L147.753 66.7902L145.42 66.8717L144.771 48.3045L151.111 48.0831ZM147.408 56.9141L150.649 56.8009C150.656 56.8004 151.23 56.7601 151.532 56.7496C152.516 56.7152 153.165 56.4758 153.756 55.8783C154.368 55.2679 154.61 54.2981 154.575 53.2929C154.579 52.345 154.218 51.4321 153.569 50.7466C152.904 50.0622 151.711 50.0382 151.496 50.0457L147.174 50.1966L147.408 56.9141Z" fill="#98E090"/>
<path d="M168.805 49.519L161.842 49.7622L162.044 55.5725L168.555 55.3452L168.626 57.4046L162.116 57.6319L162.346 64.2228L169.165 63.9847L170.395 65.9996L160.085 66.3596L159.436 47.7883L169.896 47.423L168.805 49.519Z" fill="#98E090"/>
<path d="M65.5999 51.0611L59.7623 57.8925L66.3778 69.6278L63.7164 69.7208L58.2143 59.673L55.1741 63.2154L55.4114 70.0108L53.078 70.0923L52.4295 51.521L54.7629 51.4395L55.0671 60.151L62.6829 51.1588L65.5999 51.0611Z" fill="#98E090"/>
<path d="M108.254 68.1614L105.921 68.2428L105.273 49.6798L107.606 49.5983L108.254 68.1614Z" fill="#98E090"/>
<path d="M126.873 67.5112L124.548 67.5924L123.9 49.0293L126.225 48.9481L126.873 67.5112Z" fill="#98E090"/>
<path d="M82.9096 5.56918e-05C82.9096 5.56918e-05 84.9121 1.43263 84.9726 3.1645C85.0168 4.42998 84.0872 5.76623 84.1106 6.43547C84.1258 6.8693 84.418 6.96885 84.6414 6.96109C85.385 6.93513 85.9978 5.25689 88.0619 5.18481C89.6221 5.13036 90.5335 6.4182 90.5804 7.76072C90.6271 9.0992 89.7072 10.2481 88.9837 10.9637C88.2605 11.6875 87.3541 12.7627 86.9911 13.551C86.6139 14.4007 86.5939 14.6371 86.6335 15.3057C86.6335 15.3057 85.5956 15.1795 85.557 14.0722C85.5127 12.8027 86.9408 11.5263 86.8914 10.1108C86.8526 9.00359 86.0982 8.71734 85.704 8.7311C84.6111 8.76934 83.8411 10.1363 83.8876 11.4666L84.1751 19.7002L92.4232 19.4122C93.7519 19.3658 95.0686 18.5076 95.0303 17.4125C95.0166 17.0191 94.6817 16.2876 93.5684 16.3265C92.1546 16.376 90.9748 17.8872 89.7031 17.9317C88.5857 17.9707 88.3954 16.9498 88.3954 16.9498C89.0662 16.9385 89.3091 16.9018 90.1236 16.4591C90.8905 16.0547 91.9015 15.073 92.5662 14.3026C93.235 13.5361 94.3231 12.5357 95.6599 12.489C97.0088 12.4419 98.3552 13.2599 98.4097 14.8173C98.4817 16.8818 96.8473 17.605 96.873 18.3431C96.8809 18.5703 96.9969 18.8586 97.4397 18.8431C98.1101 18.8197 99.3804 17.8007 100.644 17.7565C102.379 17.6959 103.95 19.5905 103.95 19.5905C103.944 19.5992 102.511 21.5858 100.78 21.6463C99.5162 21.6904 98.178 20.7627 97.5076 20.7861C97.0647 20.8016 96.969 21.0932 96.9768 21.3162C97.003 22.0666 98.6839 22.67 98.756 24.7345C98.8103 26.2919 97.524 27.1977 96.1751 27.2449C94.8343 27.2917 93.6833 26.3735 92.9625 25.6515C92.2458 24.9334 91.1688 24.0246 90.3713 23.6707C89.5321 23.2858 89.2873 23.2702 88.6173 23.3058C88.6173 23.3058 88.736 22.2741 89.8533 22.2351C91.125 22.1907 92.4074 23.616 93.8213 23.5667C94.9345 23.5278 95.2174 22.7708 95.2039 22.3813C95.1656 21.2862 93.7923 20.522 92.4636 20.5684L84.2155 20.8564L84.503 29.09C84.5495 30.4204 85.4129 31.7303 86.5059 31.6922C86.9 31.6784 87.6327 31.3401 87.5942 30.2368C87.5445 28.8173 86.0307 27.6396 85.9866 26.3741C85.9478 25.2629 86.9744 25.0687 86.9744 25.0687C86.9816 25.7385 87.0182 25.9769 87.4534 26.7901C87.8706 27.5553 88.85 28.5687 89.6217 29.2321C90.3933 29.8955 91.3913 30.9816 91.4382 32.3241C91.4849 33.6626 90.6655 35.0108 89.1053 35.0654C87.0413 35.1374 86.3132 33.5142 85.5696 33.5402C85.3462 33.548 85.0613 33.6595 85.0764 34.0934C85.0998 34.7626 86.1204 36.0307 86.1644 37.2921C86.2248 39.0236 84.3271 40.5928 84.3271 40.5928C84.3271 40.5928 82.3246 39.1597 82.264 37.4283C82.2201 36.171 83.1496 34.8307 83.1262 34.1615C83.1111 33.7275 82.8189 33.6363 82.5995 33.6439C81.8519 33.6702 81.2389 35.3401 79.1749 35.4121C77.6148 35.4666 76.7033 34.1788 76.6566 32.8403C76.6097 31.4978 77.5337 30.3487 78.2531 29.6332C78.9767 28.9176 79.8868 27.8338 80.2376 27.0459C80.6229 26.2001 80.6429 25.9598 80.6032 25.2871C80.6032 25.2871 81.641 25.4133 81.6799 26.5245C81.724 27.79 80.2961 29.0704 80.3456 30.49C80.3841 31.5932 81.1387 31.8796 81.5328 31.8658C82.6257 31.8276 83.3957 30.4607 83.3492 29.1303L83.0578 20.9007L74.8096 21.1887C73.481 21.2351 72.1602 22.0936 72.1982 23.1806C72.212 23.5741 72.559 24.3051 73.6601 24.2666C75.0821 24.2169 76.2539 22.7101 77.5256 22.6656C78.647 22.6264 78.8414 23.6472 78.8414 23.6472C78.1705 23.6544 77.9277 23.6951 77.1131 24.1337C76.3423 24.5424 75.3312 25.5241 74.6664 26.2904C74.0018 27.0608 72.9177 28.057 71.5768 28.1039C70.2279 28.1509 68.8816 27.337 68.8272 25.7796C68.7551 23.7151 70.3816 22.9962 70.3554 22.2459C70.3476 22.0228 70.2318 21.7386 69.7971 21.7538C69.1308 21.7771 67.8564 22.796 66.5928 22.8401C64.8619 22.9006 63.2865 21.0064 63.2865 21.0064C63.2865 21.0064 64.7224 19.0109 66.4569 18.9504C67.7206 18.9062 69.0629 19.8341 69.7293 19.8108C70.164 19.7956 70.2595 19.4999 70.2516 19.2728C70.2258 18.5346 68.5529 17.9269 68.4809 15.8625C68.4265 14.305 69.7128 13.3992 71.0617 13.3521C72.4025 13.3053 73.5535 14.2234 74.2703 14.9456C74.9869 15.6637 76.064 16.5725 76.8614 16.9264C77.7046 17.3071 77.9495 17.3267 78.6195 17.2912C78.6195 17.2912 78.4927 18.3231 77.3753 18.3622C76.1036 18.4065 74.8335 16.9808 73.4074 17.0306C72.3023 17.0691 72.0113 17.8265 72.0248 18.2159C72.063 19.311 73.4405 20.0751 74.7732 20.0286L83.0213 19.7405L82.7338 11.5069C82.6874 10.1766 81.8239 8.86667 80.731 8.90476C80.3369 8.91852 79.6042 9.25671 79.6428 10.3639C79.6922 11.7794 81.2058 12.9531 81.2503 14.2226C81.2891 15.3339 80.2624 15.5282 80.2624 15.5282C80.2553 14.8584 80.2188 14.6241 79.7753 13.8071C79.3702 13.0415 78.3869 12.0282 77.6152 11.3648C76.8475 10.7013 75.8455 9.6154 75.7988 8.27691C75.7519 6.93438 76.5713 5.5861 78.1315 5.53159C80.1954 5.45951 80.9237 7.09073 81.6713 7.06481C81.8907 7.05715 82.1755 6.93749 82.1604 6.50357C82.137 5.83433 81.1165 4.56618 81.0723 3.3007C81.012 1.57308 82.9096 5.56918e-05 82.9096 5.56918e-05Z" fill="#98E090"/>
</svg>
