<svg width="243" height="42" viewBox="0 0 243 42" fill="none" xmlns="http://www.w3.org/2000/svg">
<path d="M153.208 1.72964L154.332 1.69037L154.67 1.80354L154.933 2.16919L155.428 16.3541L155.191 16.7372L154.822 16.9167L153.74 16.9545L153.76 17.5369L157.841 17.3943L157.82 16.812L156.654 16.8527L156.274 16.6994L156.011 16.3337L155.498 1.64966L165.132 17.2647L165.507 17.2516L164.965 1.73555L165.205 1.43564L165.492 1.30066L166.783 1.25558L166.761 0.631615L162.514 0.779938L162.536 1.40391L163.702 1.36319L164.04 1.51795L164.302 1.84201L164.362 2.38133L164.733 12.9888L164.65 12.9917L157.309 0.961707L153.186 1.10567L153.208 1.72964Z" fill="#98E090"/>
<path d="M139.402 1.58703L139.424 2.21099L140.382 2.17755L140.762 2.33085L141.024 2.65491L141.519 16.8398L141.281 17.1813L140.914 17.4024L139.539 17.4504L139.56 18.0328L145.639 17.8204L145.619 17.2381L144.203 17.2875L143.864 17.1328L143.56 16.7686L143.324 10.0297L146.864 9.90609L148.857 16.8335L149.166 17.3225C149.166 17.3225 149.597 17.7239 150.43 17.6948C150.43 17.6948 152.303 17.6294 151.777 14.4825L151.65 14.4452C151.65 14.4452 151.454 15.9931 150.746 16.0178C150.746 16.0178 150.288 16.0338 149.757 15.1361L147.408 9.97038L147.364 9.88864C147.364 9.88864 151.32 9.75049 151.166 5.34111C151.166 5.34111 151.02 1.18132 146.19 1.35L139.402 1.58703ZM143.672 2.06267L146.087 1.97833C146.087 1.97833 149.376 1.86345 149.5 5.39928C149.5 5.39928 149.634 9.22629 146.635 9.33099L143.304 9.44732L143.064 2.58366L143.343 2.1991C143.343 2.1991 143.505 2.06849 143.672 2.06267Z" fill="#98E090"/>
<path d="M136.405 1.69169L132.366 1.83274L132.387 2.45671L133.095 2.43199C133.095 2.43199 134.095 2.39709 134.141 3.72822L134.435 12.131C134.435 12.131 134.628 17.6635 130.589 17.8046C130.589 17.8046 127.174 17.9238 127.04 14.0968L126.658 3.15656L126.895 2.77345L127.224 2.63702L128.431 2.59485L128.41 1.97088L123.08 2.15701L123.101 2.78098L124.184 2.74318L124.523 2.89793L124.826 3.22054L125.146 12.3721C125.146 12.3721 125.244 15.2007 126.68 16.8999C126.68 16.8999 128.159 18.6807 130.616 18.5949C130.616 18.5949 135.322 18.4306 135.131 12.9813L134.809 3.74655C134.809 3.74655 134.761 2.37382 135.719 2.34038L136.427 2.31566L136.405 1.69169Z" fill="#98E090"/>
<path d="M133.14 28.794L133.118 28.17L134.201 28.1322L134.085 24.8044L135.461 22.424L135.659 28.0813L137.324 28.0232L137.346 28.6472L135.68 28.7053L135.953 36.5257C135.953 36.5257 136 37.8569 137.166 37.8161C137.166 37.8161 138.124 37.7827 138.361 36.2334L138.822 36.3006C138.822 36.3006 138.367 38.7738 136.911 38.8663C136.911 38.8663 134.582 39.0309 134.502 36.743L134.223 28.7562L133.14 28.794Z" fill="#98E090"/>
<path d="M128.2 28.2169C124.869 28.3332 125.06 33.8241 125.06 33.8241C125.255 39.3983 128.586 39.2819 128.586 39.2819C131.21 39.1903 131.405 36.4347 131.405 36.4347L130.739 36.4579C130.56 38.505 128.478 38.5777 128.478 38.5777C126.6 38.5183 126.542 34.4804 126.542 34.4804L126.513 33.6485L131.427 33.4769C131.594 33.471 131.585 33.2215 131.585 33.2215C131.406 28.1049 128.2 28.2169 128.2 28.2169ZM128.229 29.0488C129.978 28.9878 130.084 32.0244 130.084 32.0244L130.101 32.5236L129.982 32.6943L126.484 32.8165L126.471 32.4421C126.355 29.1143 128.229 29.0488 128.229 29.0488Z" fill="#98E090"/>
<path d="M148.106 22.7738L150.438 22.6923C150.438 22.6923 152.27 22.6284 152.453 26.6619L152.536 26.659L152.375 22.0416L145.087 22.2961L145.108 22.8785L145.899 22.8509L146.155 23.0085L146.333 23.3355L146.818 37.2292L146.663 37.5678L146.419 37.7429L145.628 37.7705L145.648 38.3529L149.479 38.2191L149.459 37.6368L148.626 37.6658L148.37 37.5082L148.192 37.1812L147.948 30.1928L148.531 30.1724C148.531 30.1724 150.363 30.1084 150.456 32.7707L150.498 32.7692L150.286 26.6959L150.244 26.6974C150.244 26.6974 150.343 29.526 148.511 29.59L147.928 29.6104L147.707 23.2875L147.862 22.9489L148.106 22.7738Z" fill="#98E090"/>
<path d="M156.433 27.231C153.101 27.3473 153.293 32.8382 153.293 32.8382C153.488 38.4123 156.819 38.296 156.819 38.296C159.401 38.2059 159.68 35.4473 159.68 35.4473L158.972 35.472C158.793 37.5191 156.711 37.5918 156.711 37.5918C154.918 37.5711 154.775 33.4945 154.775 33.4945L154.746 32.6625L159.66 32.491C159.826 32.4851 159.818 32.2355 159.818 32.2355C159.639 27.119 156.433 27.231 156.433 27.231ZM156.462 28.0629C158.211 28.0019 158.317 31.0385 158.317 31.0385L158.334 31.5377L158.215 31.7084L154.717 31.8306L154.704 31.4562C154.588 28.1284 156.462 28.0629 156.462 28.0629Z" fill="#98E090"/>
<path d="M179.102 1.82496C179.102 1.82496 179.504 2.60224 179.668 4.88721L179.751 4.88431L179.587 0.183739L169.01 0.553092L169.03 1.13546L170.238 1.09329L170.577 1.24805L170.881 1.61225L171.377 15.7971L171.097 16.1401C171.097 16.1401 170.936 16.3123 170.769 16.3181L169.562 16.3603L169.582 16.9427L242.871 14.3834L242.851 13.801L180.139 15.991L179.995 11.8728L179.912 11.8757C179.912 11.8757 179.91 14.2081 179.561 14.9699C179.561 14.9699 179.098 16.0273 177.557 16.0811L174.059 16.2033C174.059 16.2033 173.893 16.2091 173.679 16.05L173.417 15.7259L173.167 8.57105L174 8.54197C174 8.54197 176.415 8.45763 176.511 11.2031L176.636 11.1987L176.42 5.00064L176.295 5.005C176.295 5.005 176.395 7.87526 174.021 7.95814L173.147 7.98868L172.922 1.541L173.158 1.15789L173.486 0.979869L177.025 0.856267C177.025 0.856267 178.566 0.802464 179.102 1.82496Z" fill="#98E090"/>
<path d="M172.365 21.4268L172.425 23.1324L171.259 23.1731L171.199 21.4676L172.365 21.4268Z" fill="#98E090"/>
<path d="M166.883 29.1983L166.946 30.987L168.112 30.9463L168.106 30.7799C168.106 30.7799 168.051 26.8252 165.053 26.9299C165.053 26.9299 161.722 27.0463 161.913 32.5372C161.913 32.5372 162.108 38.1113 165.439 37.995C165.439 37.995 168.021 37.9048 168.3 35.1463L167.592 35.171C167.592 35.171 167.413 37.218 165.331 37.2907C165.331 37.2907 163.453 37.2314 163.396 33.1935L163.324 31.1552C163.324 31.1552 163.208 27.8273 165.079 27.6787C165.079 27.6787 166.908 27.5315 167.383 29.1809L166.883 29.1983Z" fill="#98E090"/>
<path d="M170.951 27.4737C170.951 27.4737 171.242 27.4635 171.251 27.7131L171.557 36.4902C171.557 36.4902 171.566 36.7398 171.274 36.75L170.608 36.7733L170.63 37.3972L174.128 37.2751L174.106 36.6511L173.315 36.6787C173.315 36.6787 173.065 36.6875 173.018 36.5225L172.678 26.7886L170.262 26.873L170.284 27.4969L170.951 27.4737Z" fill="#98E090"/>
<path d="M175.656 27.3093L175.634 26.6854L176.717 26.6476L176.601 23.3197L177.977 20.9393L178.174 26.5967L179.798 26.54L179.82 27.1639L178.196 27.2206L178.469 35.041C178.469 35.041 178.516 36.3722 179.64 36.3329C179.64 36.3329 180.473 36.3038 180.877 34.7487L181.338 34.8159C181.338 34.8159 180.882 37.2891 179.426 37.3816C179.426 37.3816 177.097 37.5462 177.018 35.2583L176.739 27.2715L175.656 27.3093Z" fill="#98E090"/>
<path d="M0.0203225 22.9056L68.312 20.5208L68.2917 19.9384L67.0008 19.9835L66.6202 19.8302L66.3573 19.4645L66.1075 12.3097L66.9819 12.2791C66.9819 12.2791 69.6886 12.1846 69.7845 14.9301L69.9094 14.9257L69.693 8.72761L69.568 8.73198C69.568 8.73198 69.6683 11.6022 66.9616 11.6968L66.0871 11.7273L65.862 5.27961L66.0987 4.8965L66.4692 4.75862L69.967 4.63647C69.967 4.63647 72.6737 4.54195 72.9424 8.65579L73.0257 8.65288L72.8601 3.91071L61.9501 4.2917L61.9719 4.91567L63.1795 4.8735L63.5601 5.0268L63.8215 5.35086L64.3169 19.5358L64.0787 19.8773L63.7112 20.0983L-1.42408e-05 22.3232L0.0203225 22.9056Z" fill="#98E090"/>
<path d="M100.124 0.251475L100.143 0.792248L102.183 0.720995L102.522 0.875754L102.785 1.24141L103.26 14.8439C103.26 14.8439 103.305 16.1335 102.342 17.2083C102.342 17.2083 101.419 18.2401 100.378 18.2765C100.378 18.2765 98.7542 18.3332 97.7258 17.5361C97.7258 17.5361 96.9961 16.9369 96.9787 16.4377C96.9787 16.4377 98.0599 16.3583 98.0178 15.152C98.0178 15.152 97.98 14.0704 97.0222 14.1038C97.0222 14.1038 95.9396 14.1417 95.9875 15.5144C95.9875 15.5144 96.0325 16.8039 97.2852 18.0513C97.2852 18.0513 98.7964 19.5395 100.92 19.4654C100.92 19.4654 105.459 19.3069 105.273 13.9823L104.826 1.17016L105.104 0.785597L105.431 0.607572L107.347 0.540681L107.328 -9.21654e-05L100.124 0.251475Z" fill="#98E090"/>
<path d="M79.6471 3.67372L79.6689 4.29769L81.043 4.24971L81.4222 4.36141L81.6851 4.72707L82.1804 18.912L81.9422 19.2535L81.5747 19.4746L80.2005 19.5225L80.2209 20.1049L86.3005 19.8926L86.2802 19.3102L84.8644 19.3597L84.4838 19.2064L84.2209 18.8407L83.987 12.1434L87.0268 12.0373C87.0268 12.0373 91.6906 11.8744 91.541 7.58984C91.541 7.58984 91.3899 3.26366 86.5179 3.43379L79.6471 3.67372ZM84.3327 4.13483L86.0816 4.07376C86.0816 4.07376 89.871 3.94143 90.009 7.89323C90.009 7.89323 90.1296 11.3459 86.6733 11.4666L83.9667 11.5611L83.7255 4.65582L83.9623 4.27271L84.3327 4.13483Z" fill="#98E090"/>
<path d="M74.2357 18.2315L76.3178 18.1588L76.3904 20.2387L74.3084 20.3114L74.2357 18.2315Z" fill="#98E090"/>
<path d="M67.3461 25.0942L63.5151 25.228L63.5369 25.8519L64.2864 25.8258C64.2864 25.8258 64.5779 25.8156 64.5866 26.0652L65.0819 40.2501L64.8394 40.4668L64.1315 40.4915L64.1532 41.1155L67.901 40.9846L67.8792 40.3606L67.088 40.3883C67.088 40.3883 66.8381 40.397 66.8294 40.1474L66.3341 25.9625L66.5767 25.7458L67.3678 25.7182L67.3461 25.0942Z" fill="#98E090"/>
<path d="M69.8455 31.0043L70.5118 30.9811L70.8105 31.1789L71.1199 40.0392L70.8357 40.2574L70.1694 40.2807L70.1912 40.9046L73.6891 40.7825L73.6673 40.1585L72.8761 40.1861L72.5759 39.9467L72.3609 33.7902C72.3609 33.7902 73.2214 30.9697 74.5539 30.9232C74.5539 30.9232 75.7615 30.881 75.8457 33.2937L76.0738 39.8246L75.8327 40.0829L75.1664 40.1062L75.1882 40.7301L78.7277 40.6065L78.7059 39.9826L77.8314 40.0131L77.5327 39.8153L77.309 33.4092C77.309 33.4092 77.1899 29.9982 74.6081 30.0883C74.6081 30.0883 73.0674 30.1421 72.3072 32.2511L72.2389 30.296L69.8237 30.3803L69.8455 31.0043Z" fill="#98E090"/>
<path d="M81.8038 30.795L82.0464 30.5783L82.5877 30.5594L82.566 29.9354L79.1514 30.0546L79.1732 30.6786L79.8394 30.6553C79.8394 30.6553 80.0476 30.6481 80.1382 30.8531L83.0226 40.6231L83.6888 40.5999L85.5535 31.9135L85.8861 30.6941C85.8861 30.6941 86.044 30.4387 86.7935 30.4125L86.7717 29.7885L83.8568 29.8903L83.8786 30.5143L84.1701 30.5041C84.1701 30.5041 85.1279 30.4706 85.0591 30.8895L83.6346 37.853L81.8053 30.8366L81.8038 30.795Z" fill="#98E090"/>
<path d="M115.329 2.30273C112.789 2.39143 111.165 4.82213 111.165 4.82213C109.5 7.29589 109.624 10.8317 109.624 10.8317C109.748 14.4091 111.582 16.7607 111.582 16.7607C113.372 19.0722 115.912 18.9835 115.912 18.9835C118.494 18.8933 120.118 16.4626 120.118 16.4626C121.783 13.9889 121.658 10.4115 121.658 10.4115C121.534 6.87564 119.701 4.52403 119.701 4.52403C117.911 2.21257 115.329 2.30273 115.329 2.30273ZM115.364 3.30108C119.112 3.17021 119.368 10.4914 119.368 10.4914C119.625 17.8543 115.877 17.9851 115.877 17.9851C112.254 18.1117 111.997 10.7488 111.997 10.7488C111.741 3.42759 115.364 3.30108 115.364 3.30108Z" fill="#98E090"/>
<path d="M90.6855 17.6987L92.8092 17.6245L92.8804 19.6628L90.7567 19.737L90.6855 17.6987Z" fill="#98E090"/>
<path d="M99.2074 31.3117L99.1658 31.3132L99.0975 29.3581L96.724 29.441L96.7458 30.0649L97.412 30.0417L97.6691 30.2409L97.9785 39.1013L97.736 39.318L97.0697 39.3413L97.0915 39.9653L100.589 39.8431L100.568 39.2191L99.7347 39.2482C99.7347 39.2482 99.4433 39.2584 99.4345 39.0088L99.2196 32.8523C99.2196 32.8523 100.247 30.026 101.412 29.9853C101.412 29.9853 102.662 29.9416 102.746 32.3543L102.974 38.8852L102.691 39.145L102.025 39.1682L102.047 39.7922L105.586 39.6686L105.565 39.0446L104.69 39.0752C104.69 39.0752 104.44 39.0839 104.433 38.8759L104.209 32.4698C104.209 32.4698 104.09 29.0588 101.508 29.149C101.508 29.149 99.9676 29.2028 99.2074 31.3117Z" fill="#98E090"/>
<path d="M91.389 29.5023C91.389 29.5023 88.0577 29.6187 88.2494 35.1096C88.2494 35.1096 88.4441 40.6837 91.7754 40.5674C91.7754 40.5674 94.3571 40.4772 94.636 37.7187L93.9281 37.7434C93.9281 37.7434 93.7495 39.7904 91.6674 39.8631C91.6674 39.8631 89.8739 39.8425 89.7316 35.7659L89.7025 34.9339L94.6162 34.7623L94.774 34.5069C94.774 34.5069 94.5954 29.3904 91.389 29.5023ZM91.418 30.3343C91.418 30.3343 93.167 30.2732 93.273 33.3099L93.2905 33.8091L93.1713 33.9798L89.6735 34.102L89.6604 33.7276C89.6604 33.7276 89.5442 30.3997 91.418 30.3343Z" fill="#98E090"/>
<path d="M113.714 28.8477L112.631 28.8855L112.653 29.5095L113.735 29.4717L114.014 37.4585C114.014 37.4585 114.094 39.7463 116.423 39.5817C116.423 39.5817 117.879 39.4892 118.335 37.016L117.916 36.9474C117.916 36.9474 117.511 38.5025 116.678 38.5316C116.678 38.5316 115.512 38.5723 115.466 37.2412L115.193 29.4208L116.859 29.3626L116.837 28.7386L115.171 28.7968L114.974 23.1395L113.597 25.5198L113.714 28.8477Z" fill="#98E090"/>
<path d="M109.463 25.331L108.297 25.3717L108.238 23.6662L109.404 23.6255L109.463 25.331Z" fill="#98E090"/>
<path d="M107.323 29.6956L107.989 29.6723C107.989 29.6723 108.28 29.6621 108.289 29.9117L108.596 38.6889C108.596 38.6889 108.604 38.9385 108.313 38.9487L107.647 38.9719L107.668 39.5959L111.166 39.4738L111.144 38.8498L110.312 38.8789L110.056 38.7212L109.716 28.9873L107.301 29.0716L107.323 29.6956Z" fill="#98E090"/>
</svg>
