<svg width="201" height="50" viewBox="0 0 201 50" fill="none" xmlns="http://www.w3.org/2000/svg">
<path d="M4.68655 49.2033L5.24793e-05 33.2153L1.34457 33.1683L5.39091 47.2148L8.58216 32.9156L9.8707 32.8706L6.17664 49.1513L4.68655 49.2033ZM14.9781 32.6963L11.3116 48.9653L12.5159 48.9232L13.6832 43.8032L18.417 43.6379L19.9107 48.665L21.2552 48.618L16.4908 32.6435L14.9781 32.6963ZM15.7123 34.4486L18.1225 42.4346L13.8654 42.5833L15.7123 34.4486ZM32.0251 42.8197L32.015 43.1697L31.9931 43.5094L31.9596 43.8378L31.926 44.1548L31.8806 44.4611L31.8236 44.7567L31.7661 45.0407L31.6977 45.3256L31.6168 45.5879L31.5362 45.839L31.4439 46.0906L31.3398 46.3201L31.235 46.5382L31.1193 46.7567L31.0027 46.9524L30.8751 47.1488C30.1471 48.1448 29.122 48.6662 27.7888 48.7127C26.1978 48.7683 25.0089 48.1326 24.2111 46.8059C23.4243 45.4789 22.9691 43.3614 22.8684 40.4758C22.768 37.6009 23.0747 35.4682 23.7671 34.0898C24.4707 32.7219 25.6124 32.0051 27.2035 31.9495C28.5253 31.9034 29.5827 32.3064 30.3866 33.1586C31.1796 34.0226 31.6259 35.2373 31.7139 36.8032L30.3807 36.8497C30.2944 35.6564 29.9702 34.731 29.4207 34.0954C28.8715 33.4602 28.1538 33.1463 27.2573 33.1776C26.148 33.2164 25.3393 33.8205 24.8422 35.0004C24.356 36.1799 24.1498 37.9815 24.2352 40.4281C24.3202 42.8629 24.6521 44.6571 25.2193 45.8002C25.7971 46.9311 26.6358 47.4888 27.7557 47.4497C28.6635 47.418 29.3666 46.9984 29.8885 46.2013C30.399 45.4049 30.6746 44.3002 30.7142 42.8655L32.0251 42.8197ZM35.2956 48.1345L34.7322 32.0024L36.0208 31.9574L36.2593 38.7889L42.4999 38.571L42.2613 31.7395L43.5498 31.6945L44.1132 47.8265L42.8246 47.8715L42.5443 39.8451L36.3038 40.063L36.5841 48.0895L35.2956 48.1345ZM47.4741 47.7092L46.9108 31.5771L54.0814 31.3267L54.1255 32.5894L48.3557 32.7909L48.5588 38.6078L53.735 38.427L53.7779 39.6558L48.6014 39.8366L48.8305 46.3976L54.6007 46.1961L54.6448 47.4588L47.4741 47.7092ZM56.8252 31.2349L57.3882 47.3559L58.7324 47.309L58.4706 39.8121L60.9357 39.726C61.9218 39.6916 62.6067 39.8768 63.0031 40.3029C63.3883 40.7297 63.6281 41.658 63.7455 43.0987C63.7772 43.3573 63.8004 43.7062 63.8392 44.1676C63.964 45.8225 64.1667 46.8031 64.4465 47.1094L65.959 47.0566C65.5069 46.6321 65.2349 45.5865 65.1195 43.8974C65.076 43.2895 65.0484 42.8162 65.0143 42.4902C64.9069 41.3429 64.6823 40.5265 64.3394 40.0304C64.0082 39.5342 63.475 39.2028 62.7616 39.0132C63.5461 38.67 64.1457 38.1695 64.504 37.5133C64.8737 36.8571 65.013 36.0226 64.9768 34.9855C64.9287 33.6102 64.5118 32.5975 63.6939 31.9831C62.8755 31.3569 61.6093 31.0679 59.906 31.1274L56.8252 31.2349ZM58.2107 32.3719L59.8914 32.3132C61.1799 32.2682 62.1348 32.4664 62.7453 32.919C63.3445 33.3833 63.6569 34.1342 63.6931 35.1713C63.7337 36.3327 63.4553 37.1945 62.8563 37.7121C62.2577 38.2408 61.2405 38.5022 59.7728 38.5534L58.4283 38.6004L58.2107 32.3719ZM72.2757 30.3853C70.685 30.4409 69.537 31.1411 68.8443 32.5087L68.7933 32.6514L68.7133 32.767L68.6632 32.9378L68.6108 33.0528L68.5608 33.2237L68.5097 33.3664L68.4597 33.5376L68.4086 33.6804L68.3085 34.0228L68.2581 34.1937L68.237 34.3921L68.187 34.563L68.1659 34.7614L68.1158 34.9323L68.0957 35.1589L68.0324 35.7537L68.012 35.98L67.9919 36.2065L67.9708 36.4046L67.9516 36.6593L67.9595 36.8849L67.9394 37.1111L67.9203 37.3658L67.9459 38.0986L67.9277 38.3814L67.9455 38.8889C68.0462 41.7749 68.4904 43.8925 69.2882 45.2191C70.0863 46.5457 71.2806 47.1812 72.8603 47.126C74.4513 47.0705 75.5873 46.3536 76.2906 44.9745C76.9942 43.5955 77.2896 41.4518 77.1888 38.5661C77.088 35.6801 76.6445 33.5793 75.8471 32.2638C75.0489 30.9372 73.8667 30.3294 72.276 30.385L72.2757 30.3853ZM72.318 31.597C73.4273 31.5583 74.2769 32.1156 74.8442 33.2583C75.4224 34.4006 75.7309 36.1675 75.8163 38.6141C75.9014 41.0489 75.7182 42.8725 75.2211 44.0524C74.7346 45.2205 73.9263 45.8471 72.8169 45.8858C71.6966 45.925 70.8417 45.3679 70.2631 44.2255L70.1713 44.0032L70.0505 43.7534L69.9853 43.5016L69.7978 42.9437L69.732 42.6641L69.6642 42.3275L69.5971 42.0198L69.5283 41.6553L69.4885 41.3178L69.4467 40.9246L69.378 40.5602L69.3632 40.1372L69.3215 39.7436L69.29 38.842C69.2049 36.4068 69.389 34.6113 69.8862 33.4314C70.3836 32.2515 71.1976 31.6361 72.318 31.597ZM80.537 46.5546L79.9736 30.4226L81.4861 30.3697L87.9271 44.2309L87.4358 30.162L88.6903 30.1182L89.2537 46.2502L87.7076 46.3042L81.31 32.7123L81.7919 46.5108L80.537 46.5546ZM106.52 40.2183L106.51 40.5683L106.477 40.9084L106.455 41.2364L106.41 41.5538L106.364 41.8601L106.319 42.1553L106.181 42.7246L106.112 42.9864L106.031 43.2376L105.939 43.4892L105.835 43.7187L105.73 43.9368L105.614 44.1553L105.359 44.5478C104.642 45.5433 103.617 46.0647 102.284 46.1113C100.693 46.1669 99.4928 45.5315 98.706 44.2045C97.9083 42.8779 97.4641 40.76 97.3633 37.8744C97.2629 34.9994 97.5587 32.8671 98.262 31.4884C98.9547 30.1208 100.107 29.4037 101.698 29.3481C103.02 29.302 104.078 29.705 104.87 30.5576C105.674 31.4212 106.121 32.6359 106.209 34.2018L104.876 34.2483C104.778 33.0553 104.454 32.13 103.916 31.494C103.366 30.8588 102.649 30.5449 101.741 30.5766C100.632 30.6153 99.8342 31.2191 99.3367 32.399C98.8396 33.5788 98.6447 35.3801 98.7301 37.8266C98.8152 40.2615 99.1357 42.0561 99.7142 43.1988C100.292 44.3297 101.131 44.8874 102.24 44.8486C103.147 44.817 103.862 44.397 104.372 43.6002C104.894 42.8034 105.17 41.6987 105.209 40.264L106.52 40.2183ZM113.507 28.9455C111.916 29.0011 110.768 29.7013 110.075 31.0688L110.024 31.2116L109.944 31.3271L109.894 31.498L109.842 31.613L109.792 31.7838L109.741 31.9266L109.691 32.0978L109.639 32.2405L109.489 32.7539L109.468 32.9523L109.418 33.1232L109.397 33.3216L109.346 33.4925L109.326 33.719L109.263 34.3139L109.223 34.7667L109.202 34.9648L109.183 35.2195L109.19 35.4451L109.17 35.6713L109.179 35.925L109.159 36.1516L109.177 36.6587L109.159 36.9416L109.176 37.4491C109.277 40.3351 109.721 42.4526 110.519 43.7793C111.317 45.1059 112.511 45.7414 114.091 45.6862C115.671 45.6311 116.818 44.9138 117.521 43.5347C118.214 42.1561 118.52 40.012 118.419 37.1263C118.319 34.2403 117.875 32.1395 117.078 30.824C116.291 29.497 115.098 28.8899 113.507 28.9455ZM113.549 30.1572C114.669 30.1181 115.507 30.6758 116.075 31.8185C116.642 32.9612 116.961 34.7277 117.047 37.1743C117.132 39.6091 116.938 41.4331 116.452 42.6126C115.965 43.7807 115.168 44.4069 114.048 44.446C112.938 44.4848 112.072 43.9281 111.494 42.7857L111.402 42.5634L111.281 42.3136L111.216 42.0618L111.029 41.5039L110.963 41.2243L110.895 40.8877L110.828 40.5799L110.759 40.2155L110.719 39.878L110.678 39.4848L110.609 39.1204L110.594 38.6973L110.552 38.3038L110.521 37.4022C110.435 34.967 110.631 33.1711 111.117 31.9916C111.614 30.8117 112.44 30.1959 113.549 30.1572ZM121.768 45.1148L121.204 28.9828L122.717 28.9299L129.158 42.7911L128.666 28.7222L129.921 28.6784L130.484 44.8104L128.938 44.8644L122.552 31.2721L123.034 45.0706L121.768 45.1148ZM134.492 40.0878C134.578 41.2474 134.889 42.1282 135.427 42.7527C135.965 43.3773 136.671 43.6802 137.567 43.6489C138.553 43.6145 139.315 43.2942 139.867 42.6994C140.407 42.0936 140.67 41.2943 140.635 40.2911C140.618 39.795 140.525 39.3694 140.355 39.0142C140.186 38.6701 139.917 38.3523 139.549 38.0715C139.225 37.8009 138.586 37.5071 137.655 37.1782C137.343 37.0794 137.036 36.9658 136.734 36.8378C135.495 36.3619 134.611 35.7833 134.071 35.1024C133.532 34.4216 133.242 33.5286 133.204 32.4352C133.162 31.2178 133.519 30.2005 134.276 29.3955C135.021 28.5795 135.993 28.1502 137.204 28.1079C138.436 28.0649 139.423 28.3918 140.154 29.0888C140.897 29.7851 141.279 30.7762 141.323 32.05L141.327 32.1629L140.073 32.2067C139.983 31.2614 139.7 30.5377 139.234 30.0348C138.757 29.5437 138.12 29.3062 137.325 29.334C136.496 29.3629 135.811 29.6691 135.282 30.2631C134.764 30.8457 134.509 31.5768 134.539 32.4449C134.553 32.8394 134.622 33.2096 134.746 33.5439C134.881 33.8664 135.049 34.1766 135.282 34.4393C135.656 34.8665 136.49 35.2999 137.762 35.7521C138.001 35.8344 138.171 35.8963 138.296 35.9369C139.591 36.4108 140.508 36.9772 141.07 37.6348C141.631 38.2924 141.931 39.1619 141.968 40.2332C142.017 41.6423 141.653 42.7612 140.896 43.589C140.14 44.4279 139.079 44.86 137.7 44.9081C136.334 44.9558 135.266 44.5756 134.485 43.7451C133.694 42.9149 133.259 41.7112 133.159 40.1344L134.492 40.0878ZM147.313 44.2227L146.795 29.3983L143.232 29.5227L143.186 28.2151L151.69 27.9182L151.736 29.2257L148.161 29.3506L148.679 44.175L147.313 44.2227ZM156.933 27.7391L153.294 44.0068L154.499 43.9647L155.666 38.8447L160.4 38.6794L161.893 43.7065L163.21 43.6605L158.473 27.6853L156.933 27.7391ZM157.695 29.4905L160.077 37.4774L155.848 37.6251L157.695 29.4905ZM165.441 43.5897L164.877 27.4577L166.401 27.4045L172.83 41.266L172.339 27.1971L173.605 27.1529L174.168 43.2849L172.611 43.3393L166.225 29.747L166.706 43.5455L165.441 43.5897ZM179.871 43.0858L179.353 28.2613L175.779 28.3861L175.734 27.0785L184.249 26.7812L184.294 28.0888L180.72 28.2136L181.238 43.038L179.871 43.0858ZM186.986 42.8373L188.319 42.7908L187.756 26.6587L186.422 26.7053L186.986 42.8373ZM191.725 42.6718L191.162 26.5398L192.685 26.4866L199.115 40.3482L198.623 26.2792L199.878 26.2354L200.442 42.3674L198.896 42.4214L192.509 28.8292L192.991 42.6276L191.725 42.6718ZM102.563 12.6806L102.812 12.7286L112.513 16.5322L110.509 11.5004L110.409 11.5263L110.508 11.4779L110.472 11.4L110.505 11.3988L112.15 6.13824L102.771 10.6081L102.515 10.662C102.347 10.6678 102.166 10.6292 102.038 10.4867C101.877 10.3571 101.804 10.1901 101.796 9.98735L101.833 9.76021L105.632 -8.62269e-05L100.532 2.05164L95.3015 0.360646L99.7491 9.83299L99.8133 10.0566C99.8204 10.2594 99.77 10.4306 99.6291 10.5708C99.511 10.7219 99.3334 10.7731 99.1541 10.7793L98.906 10.743L89.2047 6.93952L91.2199 11.9706L91.32 11.9446L91.2207 11.9934L91.2461 12.0714L91.2234 12.0722L89.5677 17.3334L98.9574 12.8632L99.2019 12.798C99.3815 12.7917 99.5627 12.8421 99.6911 12.9843C99.8414 13.1143 99.9259 13.2808 99.933 13.4836L99.8846 13.7111L96.0862 23.4714L101.186 21.4197L106.416 23.1107L101.969 13.6384L101.916 13.4143C101.909 13.2115 101.948 13.0407 102.089 12.9006C102.218 12.7494 102.384 12.6869 102.563 12.6806Z" fill="#98E090"/>
</svg>
