<svg width="160" height="65" viewBox="0 0 160 65" fill="none" xmlns="http://www.w3.org/2000/svg">
<path d="M32.8142 37.5785L32.7834 36.6977C35.4171 36.4454 36.6229 35.8153 36.5465 33.6267L35.6116 6.85532C35.5342 4.63995 34.2855 4.04218 31.8825 4.0192L31.8517 3.13839L44.2216 2.70642L44.2524 3.58723C41.9101 3.77592 40.7061 4.45934 40.7835 6.67471L41.7175 33.4194C41.7948 35.6347 43.0416 36.1791 45.7122 36.2195L45.743 37.1003L32.8132 37.5518L32.8142 37.5785ZM91.0755 6.04088L81.1549 36.1042L80.2752 36.1349L71.7381 14.0919L63.2399 36.7298L62.3601 36.7605L50.618 6.25111C49.9148 4.45845 49.109 3.55125 46.5975 3.47862L46.5667 2.59781L59.3365 2.15188L59.3673 3.03268C56.8669 3.28034 56.2027 4.13198 56.2418 5.25301C56.2623 5.84022 56.6471 6.92246 57.0263 7.84455L64.3697 27.043L70.443 10.6363L68.3848 5.2031C67.7396 3.54203 66.7842 2.93402 64.5668 2.87784L64.536 1.99703L77.2525 1.55296L77.2833 2.43377C74.3526 2.58956 74.0405 3.58924 74.0676 4.36328C74.0862 4.89711 74.3026 5.74471 74.6818 6.6668L82.0481 25.7576L87.7909 8.29348C88.5382 5.99586 88.7572 4.6253 88.7376 4.06478C88.691 2.73022 87.6327 2.2327 85.1744 2.1582L85.1437 1.27739L96.1006 0.894765L96.1314 1.77558C93.4711 2.02882 92.1394 2.87704 91.0755 6.04088ZM112.497 35.5174C101.834 35.8898 95.4391 28.577 95.0756 18.1674C94.8557 11.8683 98.2479 0.47237 111.391 0.0134051C117.336 -0.1942 118.99 2.07302 121.043 2.00133C121.816 1.97433 122.362 1.55441 122.444 0.0817404L123.324 0.0510188L124.089 10.5L123.049 10.5363C121.506 4.57735 117.032 1.79399 111.886 1.97367C109.194 2.06769 106.721 3.0894 104.818 5.16013C102.401 7.81 100.976 12.0822 101.18 17.9275C101.498 27.0293 105.75 33.3747 113.507 33.1037C118.706 32.9222 121.887 30.7534 124.305 26.6337L125.202 27.0834C122.794 32.2717 118.576 35.3052 112.497 35.5174ZM152.703 59.4476L152.444 52.0274L158.435 59.2474L159.955 59.1944L159.591 48.7848L157.805 48.8471L158.057 56.0538L152.233 49.0417L150.527 49.1013L150.891 59.5109L152.703 59.4476ZM137.508 59.9782L145.292 59.7064L145.235 58.0782L139.264 58.2868L139.166 55.4842L144.391 55.3017L144.334 53.6735L139.109 53.856L139.015 51.1602L144.906 50.9544L144.85 49.3263L137.145 49.5953L137.508 59.9782ZM128.555 60.4245C130.741 60.3482 132.22 59.1474 132.152 57.1989L132.151 57.1722C132.091 55.4373 130.944 54.7023 128.713 54.2458C126.696 53.8352 126.204 53.5049 126.176 52.7042L126.176 52.6775C126.151 51.9835 126.746 51.4283 127.839 51.3901C128.799 51.3566 129.745 51.6977 130.702 52.3591L131.64 50.9367C130.544 50.1198 129.328 49.708 127.809 49.761C125.756 49.8327 124.306 51.1126 124.368 52.901L124.369 52.9276C124.436 54.8494 125.712 55.4462 127.944 55.9295C129.879 56.3162 130.32 56.7017 130.346 57.449L130.347 57.4757C130.374 58.2498 129.673 58.8087 128.553 58.8478C127.273 58.8925 126.244 58.4475 125.226 57.6011L124.179 58.9471C125.444 59.9987 126.955 60.4804 128.555 60.4245ZM114.959 60.926C117.679 60.831 119.383 59.1948 119.275 56.0986L119.069 50.1998L117.23 50.2641L117.439 56.2696C117.506 58.1914 116.554 59.1867 114.927 59.2435C113.301 59.3003 112.253 58.3214 112.185 56.3729L111.978 50.4475L110.138 50.5117L110.348 56.5172C110.479 59.5057 112.24 61.0209 114.959 60.926ZM99.2937 57.1705L100.934 52.9443L102.866 57.0458L99.2937 57.1705ZM95.8125 61.4343L97.6786 61.3691L98.6574 58.8229L103.563 58.6516L104.717 61.1233L106.636 61.0563L101.684 50.7267L99.9782 50.7863L95.8125 61.4343ZM81.923 61.9193L83.7358 61.856L83.5829 57.4786L88.5416 57.3055L88.6944 61.6828L90.5339 61.6186L90.1704 51.209L88.3309 51.2732L88.4819 55.5972L83.5233 55.7704L83.3723 51.4464L81.5595 51.5097L81.923 61.9193ZM69.1265 62.3662L70.966 62.3019L70.8178 58.058L76.0697 57.8746L76.0119 56.2198L70.76 56.4032L70.6612 53.5739L76.5796 53.3672L76.5218 51.7123L68.7906 51.9823L69.1532 62.3652L69.1265 62.3662ZM56.1168 62.8205L57.9563 62.7562L57.8081 58.5123L63.0599 58.3289L63.0021 56.6741L57.7503 56.8575L57.6515 54.0282L63.5698 53.8215L63.512 52.1666L55.7542 52.4376L56.1168 62.8205ZM43.9489 59.1032L45.5897 54.877L47.5213 58.9784L43.9489 59.1032ZM40.4677 63.3669L42.3339 63.3018L43.3127 60.7555L48.218 60.5843L49.372 63.056L51.3181 62.988L46.3664 52.6585L44.6602 52.7181L40.4677 63.3669ZM28.8176 63.7738L28.6648 59.3964L33.5967 59.2242L33.7496 63.6015L35.5891 63.5373L35.2256 53.1277L33.3861 53.192L33.5371 57.5159L28.5785 57.6891L28.4275 53.3651L26.588 53.4293L26.9515 63.8389L28.8176 63.7738ZM17.7596 64.3203C19.7057 64.2523 20.8802 63.4897 21.9075 62.3315L20.6925 61.1713C19.8416 62.0295 19.0329 62.5655 17.7533 62.6102C15.7538 62.68 14.2564 61.0754 14.1856 59.0469L14.1847 59.0202C14.1138 56.9916 15.5223 55.2856 17.4951 55.2167C18.6948 55.1748 19.5922 55.6512 20.4457 56.3964L21.5712 54.9942C20.5512 54.0677 19.3549 53.4414 17.4354 53.5084C14.2896 53.6183 12.1617 56.1245 12.2652 59.0872L12.2661 59.1139C12.3724 62.1567 14.7204 64.4264 17.7596 64.3203ZM4.3757 64.7609C6.56176 64.6846 8.04127 63.4838 7.97322 61.5353L7.97229 61.5086C7.91171 59.7737 6.76499 59.0388 4.53362 58.5822C2.5174 58.1716 2.02541 57.8414 1.99745 57.0406L1.99652 57.0139C1.97228 56.32 2.56681 55.7647 3.65984 55.7265C4.61957 55.693 5.5657 56.0341 6.52301 56.6955L7.46093 55.2731C6.36473 54.4562 5.14922 54.0444 3.62964 54.0975C1.57687 54.1691 0.126826 55.4491 0.189275 57.2374L0.190207 57.2641C0.257317 59.1858 1.53267 59.7827 3.76497 60.2659C5.70029 60.6526 6.14082 61.0381 6.16692 61.7855L6.16785 61.8122C6.19488 62.5862 5.49372 63.1452 4.37403 63.1843C3.09438 63.229 2.06455 62.7839 1.0474 61.9375L3.5684e-05 63.2836C1.26458 64.3351 2.77614 64.8168 4.3757 64.7609Z" fill="#98E090"/>
</svg>
