<svg width="200" height="82" viewBox="0 0 200 82" fill="none" xmlns="http://www.w3.org/2000/svg">
<path fill-rule="evenodd" clip-rule="evenodd" d="M26.6165 42.7666C27.7162 42.7282 28.2267 43.8132 28.2871 45.5435L28.7049 57.5062C28.9246 63.7996 25.7878 64.0677 24.5079 63.4817C22.9087 62.7495 22.5014 60.0859 22.4134 57.5674L22.0013 45.7641C21.9408 44.0327 22.5313 42.9104 23.6311 42.872L23.6091 42.2421L17.1662 42.4671L17.1882 43.097C18.288 43.0586 18.7985 44.1436 18.8589 45.8739L19.3151 58.9381C19.3975 61.2982 20.9443 65.0272 24.2545 65.2252C27.5594 65.2683 29.6886 63.1445 29.4853 57.3215L29.073 45.5172C29.0126 43.7858 29.6019 42.6635 30.5459 42.6305L30.5239 42.0006L26.5945 42.1379L26.6165 42.7666ZM38.0653 41.7361L31.9364 41.9502L31.9584 42.5801C33.0582 42.5417 33.7256 43.6212 33.786 45.3515L34.3246 60.7758C34.3851 62.5072 33.7957 63.6295 32.6948 63.668L32.7168 64.2979L39.3166 64.0674C40.7314 64.018 42.1177 63.1838 43.4719 61.4007C45.5671 58.3338 45.9707 51.8601 44.7335 47.9629C43.4579 42.9677 40.8938 41.6374 38.0653 41.7361ZM41.8024 58.6238C41.5435 60.2078 41.1704 63.0584 38.342 63.1571C37.5561 63.1846 37.5451 62.869 37.4846 61.1376L36.913 44.7701C36.8526 43.0387 36.8471 42.8815 37.633 42.8541C38.7327 42.8157 39.5131 42.6299 40.5219 44.4867C42.1969 47.422 42.4497 54.6609 41.8024 58.6238ZM88.106 28.4859L85.7483 28.5682L88.6159 20.5897L94.7449 20.3756L95.0196 28.2444L92.1912 28.3432L92.2351 29.6019L109.363 29.0038L109.319 27.7451L106.492 27.8438L106.09 16.355L110.333 16.2069C111.903 16.152 113.111 14.6922 113.067 13.4324L112.682 2.41632C112.649 1.47202 111.494 -0.0637867 109.608 0.0020618L91.2239 0.644065L91.2678 1.90275L93.4685 1.8259L84.1788 28.623L81.9782 28.6998L82.0221 29.9585L88.151 29.7445L88.106 28.4859ZM105.567 1.40341L107.611 1.33204C108.082 1.3156 108.406 1.61906 108.422 2.09064L108.845 14.2094C108.862 14.6821 108.56 15.0074 108.089 15.0238L106.045 15.0952L105.567 1.40341ZM98.1815 1.66132L101.482 1.54607L102.405 27.9865L99.1048 28.1018L98.1815 1.66132ZM94.1843 4.3225L94.6954 18.9597L88.8815 19.1628L94.1843 4.3225ZM52.0124 62.6809C51.0641 62.5555 50.8907 62.0894 50.8356 60.514L50.5719 52.9608C52.7769 53.04 53.2708 53.6523 54.0416 57.7242L54.3555 57.7133L53.9763 46.8544L53.6624 46.8653C53.1763 50.9789 52.7219 51.4669 50.5334 51.8593L50.2696 44.3037C50.2091 42.5723 50.355 42.2513 50.9895 42.3877L52.7182 42.3273C55.8672 42.3758 56.1781 46.7775 56.3735 47.8735L56.8455 47.857L56.6091 41.0886L45.4522 41.4782L45.4741 42.1081C46.417 42.0752 47.0832 43.1547 47.1437 44.885L47.6823 60.3094C47.7427 62.0408 47.1522 63.1631 46.2106 63.196L46.2326 63.8259L57.5465 63.4308L58.096 56.6361L57.6241 56.6525C56.3742 61.4257 54.8518 62.8954 52.0124 62.6809ZM15.4362 37.9576L8.83096 38.0309L8.87492 39.2896L10.9175 39.2183L2.20069 64.4204L2.08811e-06 64.4972L0.0439566 65.7559L5.85787 65.5529L5.81391 64.2942L3.45628 64.3765L6.18339 56.875L11.9973 56.672L12.2556 64.0692L9.58408 64.1625L9.62804 65.4212L18.8994 65.0974L18.8554 63.8388L16.342 63.9265L15.4351 37.9577L15.4362 37.9576ZM11.9654 55.7254L6.62345 55.9119L11.4818 41.8764L11.9654 55.7254ZM133.754 33.6674L123.383 34.0295L123.427 35.2882L125.941 35.2004L126.81 60.0678L123.982 60.1665L124.026 61.4252L133.611 61.0905L133.567 59.8318L130.897 59.925L130.518 49.0661L134.603 48.9235C136.018 48.8741 137.068 47.4186 137.035 46.4755L136.667 35.9298C136.638 35.1428 135.639 33.6015 133.754 33.6674ZM133.121 47.0843C133.138 47.5559 132.836 47.8801 132.365 47.8965L130.479 47.9624L130.029 35.0588L131.914 34.993C132.385 34.9765 132.709 35.28 132.72 35.5944L133.121 47.0843ZM153.855 50.6154C154.955 50.577 155.466 51.662 155.527 53.3922L155.675 57.641C155.691 58.1126 155.719 58.8997 154.95 59.3999C154.49 59.7318 153.861 59.7538 153.39 59.7702C153.075 59.7813 152.604 59.7977 152.271 59.3372C151.308 58.7401 150.793 57.4979 150.245 55.3091C149.881 53.9053 149.64 51.5484 149.558 49.187C149.47 46.6685 149.545 44.3028 149.811 42.8771C150.205 40.6554 150.632 39.3802 151.551 38.7174C151.84 38.4215 152.225 38.2403 152.637 38.2074C153.894 38.1635 156.799 40.27 157.911 45.1135L158.384 45.097L158.11 37.2282L157.636 37.2447C157.346 37.8856 157.384 38.9882 156.273 38.7111C155.633 38.4186 154.344 37.5182 152.61 37.4203C151.353 37.4641 149.959 38.1435 148.752 39.6033C146.932 41.5577 146.122 45.369 146.259 49.3022C146.391 53.0794 147.465 56.8249 149.422 58.806C150.723 60.0196 152.166 60.7573 153.423 60.7134C154.052 60.6915 154.68 60.6695 155.301 60.4893C155.768 60.3167 158.417 59.5947 158.862 58.7899L158.67 53.2813C158.61 51.5499 159.2 50.4276 160.3 50.3892L160.278 49.7593L153.834 49.9843L153.856 50.6154L153.855 50.6154ZM169.297 37.7841C170.397 37.7457 170.909 38.8307 170.969 40.5609L171.387 52.5236C171.607 58.8171 168.469 59.0852 167.19 58.4991C165.589 57.767 165.183 55.1033 165.095 52.5848L164.683 40.7816C164.623 39.0502 165.213 37.9279 166.313 37.8895L166.291 37.2595L159.849 37.4845L159.871 38.1144C160.971 38.076 161.48 39.161 161.541 40.8913L161.997 53.9555C162.079 56.3157 163.626 60.0446 166.936 60.2427C170.242 60.2857 172.37 58.162 172.167 52.339L171.755 40.5346C171.694 38.8032 172.285 37.6809 173.229 37.6479L173.207 37.018L169.275 37.1553L169.297 37.7841ZM181.494 58.1593C180.388 58.0394 180.372 57.5678 180.317 55.9924L180.053 48.4392C182.26 48.5183 182.595 49.1362 183.367 53.2081L183.838 53.1917L183.459 42.3328L182.988 42.3492C182.502 46.4628 182.205 46.9453 180.015 47.3377L179.751 39.7821C179.69 38.0507 179.837 37.7297 180.471 37.8661L182.199 37.8057C185.348 37.8543 185.659 42.2559 185.854 43.352L186.169 43.341L185.932 36.5725L174.774 36.9622L174.796 37.5921C175.896 37.5537 176.563 38.6332 176.624 40.3635L177.162 55.7878C177.223 57.5192 176.632 58.6416 175.533 58.68L175.555 59.3099L186.87 58.9147L187.575 52.1146L186.946 52.1365C185.697 56.9097 184.334 58.3737 181.494 58.1593ZM187.346 36.5231L187.577 43.1333L188.05 43.1167C188.178 42.3242 188.123 40.7511 189.007 38.9867C190.041 37.0597 191.314 37.4874 191.785 37.471L192.406 55.2555C192.466 56.9869 191.876 58.1092 190.934 58.1421L190.956 58.772L197.242 58.5525L197.22 57.9226C196.276 57.9556 195.608 56.8761 195.548 55.1458L194.927 37.3612C195.398 37.3448 196.639 36.8293 197.804 38.6795C198.808 40.378 198.863 41.9499 199.049 42.7326L199.361 42.7217L199.131 36.1116L187.346 36.5231ZM68.4551 55.9607L63.8367 40.8362L58.3367 41.0282L58.3587 41.6582C59.7735 41.6088 60.2608 42.0639 60.3432 44.4241L60.8819 59.8484C60.9423 61.5798 60.5088 62.6967 59.252 62.7406L59.274 63.3705L63.6743 63.2168L63.6523 62.5869C62.5525 62.6253 61.8851 61.5458 61.8247 59.8155L61.2641 43.7624L67.2875 63.0918L67.7595 63.0753L72.5769 43.3673L73.1375 59.4216C73.198 61.153 72.6086 62.2753 71.5077 62.3137L71.5297 62.9436L78.4445 62.7022L78.4225 62.0723C77.3227 62.1107 76.6553 61.0311 76.5949 59.3009L76.0563 43.8765C75.9958 42.1451 76.5863 41.0228 77.6861 40.9844L77.6641 40.3545L72.3211 40.541L68.4551 55.9607ZM106.191 59.8412L102.101 50.8443C103.187 50.3342 104.101 49.5142 104.67 47.7608C105.384 45.6887 104.82 43.0283 103.984 41.6387C102.824 39.9457 100.922 39.54 99.3502 39.5949L93.2212 39.8089L93.2432 40.4388C94.1861 40.4059 94.8535 41.4854 94.9139 43.2157L95.4525 58.6401C95.513 60.3715 94.9225 61.4938 93.9796 61.5267L94.1366 61.5212L94.1586 62.1511L100.288 61.9371L100.266 61.3072C99.3227 61.3401 98.6565 60.2606 98.596 58.5303L98.3542 51.6046L98.825 51.5882L103.273 61.8329L107.202 61.6956L107.18 61.0657C106.864 61.0791 106.712 61.2429 106.191 59.8412ZM101.683 47.8663C101.158 50.8783 99.2564 50.4726 98.3135 50.5055L98.0223 42.1651C97.9893 41.2197 98.4436 40.7317 98.7575 40.7207C100.318 40.3514 100.986 41.431 101.342 42.6799C101.687 43.4536 101.942 46.2822 101.683 47.8663ZM91.4102 60.0437L85.6787 40.0734L85.2067 40.0899L81.0171 59.776C80.6111 61.6811 80.1512 62.0119 79.6804 62.0283L79.7024 62.6582L83.6306 62.5211L83.6086 61.8912C82.195 61.9405 81.6845 60.8555 82.0961 59.1088L82.6206 56.0967L87.1778 55.9376L88.2525 59.6818C88.6269 61.4023 87.3811 61.7594 86.5952 61.7869L86.6172 62.4168L92.7461 62.2027L92.7241 61.5728C92.408 61.5839 91.7736 61.4498 91.4102 60.0437ZM82.8894 54.8259L84.4892 46.5746L86.8176 54.6888L82.8894 54.8259ZM138.341 38.8651C139.598 38.8212 140.265 39.9008 140.325 41.631L140.864 57.0554C140.925 58.7868 140.334 59.9091 139.077 59.953L139.099 60.5829L145.856 60.347L145.834 59.7171C144.577 59.7609 144.067 58.6759 144.006 56.9457L143.468 41.5224C143.407 39.791 143.84 38.6742 145.098 38.6303L145.076 38.0004L138.319 38.2363L138.341 38.8651ZM113.799 47.9153C111.241 46.7444 110.394 45.0405 110.345 43.6257C110.317 42.8386 110.534 39.9936 112.42 39.9277C115.248 39.8289 116.346 44.202 116.877 45.9169L117.348 45.9005L117.095 38.6616L116.624 38.678C116.331 39.319 116.347 39.7905 115.877 39.807C114.777 39.8454 113.794 38.7769 111.596 38.8536C109.71 38.9195 107.571 40.7288 107.725 45.1337C107.797 47.1806 108.524 49.9904 111.099 51.634C114.644 54.0318 115.935 54.9333 116.001 56.822C116.028 57.6068 115.831 60.9245 113 61.0233C110.956 61.0947 109.428 57.8384 109.226 56.5841L108.673 54.2403L108.202 54.2568L108.482 62.2839L108.953 62.2675C108.931 61.6376 109.073 61.1605 109.227 61.1551C110.329 61.1166 112.251 62.1523 113.508 62.1084C118.223 61.9437 118.86 57.6676 118.783 55.4646C118.673 52.3161 117.161 49.5326 113.799 47.9153ZM1.05335 81.1615C1.99618 81.1286 2.14219 80.8099 2.27161 80.0162L3.18455 74.6275C3.17902 74.4691 3.33048 74.3064 3.32503 74.1504C3.30848 73.6765 2.83105 73.537 2.36021 73.5534L2.34919 73.2379L5.49157 73.1281L5.50258 73.4437C4.55976 73.4766 4.41375 73.7953 4.28432 74.589L3.37139 79.9778L3.38785 80.4493C3.39887 80.7649 3.55582 80.7594 4.18475 80.7374L4.96949 80.71C5.91232 80.6771 6.37328 80.3451 6.65424 79.3909L6.81233 79.3854L6.55889 81.1278L1.05888 81.3199L1.05335 81.1615ZM9.41791 77.4035C9.55286 76.7681 9.99191 75.8085 10.7778 75.781C11.2498 75.7646 11.5746 76.0668 11.5857 76.3835C11.6131 77.1683 10.9897 77.3486 10.5188 77.3651L9.41791 77.4035ZM11.8855 80.4696C11.5771 80.6389 11.4202 80.6444 11.1063 80.6554C9.69147 80.7048 9.35009 79.9286 9.31707 78.9832C9.3006 78.5116 9.28414 78.04 9.43006 77.719L10.6868 77.6751C11.6296 77.6422 12.567 77.4532 12.534 76.5078C12.5066 75.723 11.7041 75.2765 10.9194 75.3039C8.8768 75.3753 8.16793 77.608 8.22282 79.1799C8.27231 80.5969 9.08019 81.1994 10.18 81.161C10.9658 81.1336 11.5881 80.9533 11.8976 80.7851L11.8855 80.4696ZM18.9823 76.4388L18.9658 75.9673C18.9658 75.9673 18.9603 75.8089 18.8033 75.8144C18.6464 75.8199 18.1909 76.308 17.888 76.6344L17.731 76.6399C18.0285 76.1574 18.9327 75.0207 19.4047 75.0042C19.7186 74.9933 19.8877 75.3032 19.8987 75.6176L19.9262 76.4048L19.6672 77.9888L19.6728 78.1471C19.9537 77.193 20.8195 74.9548 22.0763 74.9109C22.5482 74.8944 22.8732 75.199 22.8896 75.6706C22.9006 75.9861 22.7491 76.1476 22.7602 76.4632L22.4957 77.8889L22.5012 78.0472C22.9402 77.0876 23.8061 74.8494 25.0628 74.8055C25.5348 74.789 25.7027 75.099 25.7192 75.5706L25.7467 76.3577L25.0652 79.3753L25.0762 79.6885C25.0817 79.8469 25.0817 79.8469 25.2386 79.8414C25.3956 79.8359 25.8511 79.3478 26.154 79.0213L26.3165 79.1742C26.0136 79.5007 25.1092 80.6351 24.6361 80.6516C24.3222 80.6626 24.1597 80.5097 24.1488 80.1965L24.1213 79.4094L24.8028 76.3918L24.7863 75.9203C24.7808 75.7619 24.7753 75.6047 24.4602 75.6157C23.6755 75.6431 22.2356 79.4752 22.1172 80.5822L21.1743 80.6151L21.8162 76.4961L21.7997 76.0246C21.7942 75.8662 21.7887 75.709 21.6318 75.7145C20.8459 75.7419 19.6716 78.146 19.1306 80.6865L18.1878 80.7194L18.9823 76.4388ZM28.5095 78.9425C28.4655 77.6838 29.3205 75.1347 30.5772 75.0908C30.8911 75.0798 31.0656 75.5459 31.0766 75.8591C31.1261 77.2761 30.1142 79.8331 29.1714 79.866C28.8564 79.877 28.5369 79.7296 28.5095 78.9425ZM30.5631 79.1867L30.5906 79.9738C30.596 80.1299 30.764 80.4399 31.079 80.4289C31.551 80.4124 32.4554 79.278 32.7582 78.9515L32.5958 78.7987C32.2929 79.1252 31.8385 79.6132 31.6804 79.6187C31.5235 79.6242 31.5235 79.6242 31.5179 79.4659L31.507 79.1526L32.2959 74.7126L31.3531 74.7455L31.2182 75.3809C31.0491 75.0732 30.8756 74.6048 30.2467 74.6267C28.518 74.6871 27.5282 77.874 27.5721 79.1326C27.5941 79.7626 27.7786 80.5442 28.7214 80.5112C29.8212 80.4728 30.4006 79.0339 30.698 78.5513L30.5631 79.1867ZM35.3548 72.2438C35.6577 71.9173 35.8103 71.7558 35.9673 71.7503C36.1242 71.7448 36.2866 71.8954 36.4557 72.2054L37.1341 73.6004L36.661 73.617L35.8476 72.8573L34.6184 73.6883L34.1476 73.7047L35.3548 72.2438ZM36.6854 78.8144C36.3825 79.1409 35.4781 80.2753 35.0061 80.2918C34.6922 80.3027 34.5298 80.1499 34.5188 79.8366L34.4913 79.0495L35.0103 75.8791C35.1617 75.7153 35.1563 75.5604 35.1508 75.4021C35.1453 75.2437 34.9883 75.2492 34.9883 75.2492C34.8302 75.2547 34.2189 75.7482 33.916 76.0747L33.7591 76.0802C34.2146 75.5922 34.9608 74.461 35.5897 74.439C35.9036 74.4281 36.0727 74.7381 36.0837 75.0524C36.0892 75.2108 36.1003 75.5263 35.9542 75.845L35.4364 79.0154L35.4473 79.3286C35.4529 79.487 35.4529 79.487 35.6098 79.4815C35.7668 79.476 36.2223 78.988 36.5252 78.6615L36.6854 78.8144ZM40.7717 78.6717C40.3173 79.1597 39.4075 80.1381 38.7786 80.16C38.4647 80.171 38.3011 80.0182 38.2901 79.7049C38.2791 79.3894 38.2681 79.075 38.4196 78.9124L39.068 74.9494L37.9683 74.9878L38.1087 74.5107C39.2085 74.4723 39.821 73.9788 40.0909 72.708L40.4048 72.697L39.9933 74.4449L41.565 74.39L41.5815 74.8616L40.0097 74.9165L39.3624 78.8794C39.3679 79.0378 39.2164 79.1982 39.2164 79.1982C39.2219 79.3565 39.3789 79.351 39.3789 79.351C39.6928 79.3401 40.3053 78.8465 40.6081 78.52L40.7717 78.6717ZM43.3388 75.5883L43.3223 75.1167C43.3223 75.1167 43.3168 74.9584 43.1599 74.9639C43.0029 74.9693 42.5474 75.4574 42.2445 75.7839L42.0876 75.7894C42.385 75.3068 43.1323 74.1756 43.7613 74.1537C44.0752 74.1427 44.2443 74.4527 44.2553 74.7671L44.2827 75.5542L44.1533 76.3468C44.2938 75.8697 44.861 74.1141 45.805 74.0812C46.277 74.0647 46.4449 74.3747 46.4559 74.6891C46.4669 75.0046 46.164 75.33 45.849 75.341C45.692 75.3465 45.5296 75.1959 45.3727 75.2014C45.0588 75.2123 44.0073 76.6655 43.4894 79.8359L42.5466 79.8688L43.3388 75.5883ZM48.3888 76.0426C48.3668 75.4127 48.8048 74.4531 49.7476 74.4202C50.2196 74.4037 50.5444 74.706 50.5555 75.0227C50.5829 75.8075 49.8025 75.9933 49.3317 76.0097L48.3888 76.0426ZM50.8553 79.1088C50.614 79.232 50.3469 79.2957 50.0761 79.2945C48.5043 79.3494 48.1629 78.5733 48.1299 77.6278C48.1134 77.1562 48.2539 76.6792 48.2429 76.3636L49.4996 76.3198C50.4425 76.2868 51.5368 76.0924 51.5038 75.1469C51.4764 74.3621 50.6739 73.9157 49.8892 73.9431C47.6885 74.0199 46.9808 76.2526 47.0357 77.8245C47.0852 79.2416 47.893 79.844 49.1498 79.8002C49.9345 79.7728 50.4009 79.5979 50.7094 79.4298L50.8553 79.1088ZM57.736 77.9219C57.6975 76.8204 58.39 74.1195 59.6467 74.0756C59.9606 74.0647 60.2866 74.3669 60.3031 74.8385C60.3415 75.94 59.3407 78.8125 58.241 78.8509C58.084 78.8564 57.7634 78.709 57.736 77.9219ZM59.7907 78.1661C59.6393 78.3299 59.6502 78.6431 59.6613 78.9586C59.6667 79.1147 59.8347 79.4247 60.1497 79.4137C60.7786 79.3918 61.683 78.2574 61.9859 77.9309L61.8234 77.778C61.5205 78.1045 61.065 78.5926 60.7511 78.6035C60.7511 78.6035 60.5942 78.609 60.5886 78.4507C60.5886 78.4507 60.5832 78.2946 60.7346 78.132L61.8967 70.8437L59.8595 71.071L59.8705 71.3866C60.3425 71.3701 60.6564 71.3591 60.6729 71.8307L60.6893 72.3023L60.4414 74.2019C60.2735 73.8941 59.9474 73.5884 59.3196 73.6104C57.749 73.6652 56.6011 76.8576 56.645 78.1162C56.667 78.7462 56.8515 79.5278 57.7943 79.4949C58.8941 79.4565 59.6249 77.8536 59.7654 77.3766L59.9224 77.3711L59.7907 78.1661ZM64.4169 75.4829C64.5519 74.8475 64.9909 73.8879 65.9337 73.855C66.2476 73.844 66.5736 74.1462 66.5847 74.4629C66.6121 75.2477 65.9887 75.428 65.5167 75.4445L64.4169 75.4829ZM66.8845 78.549C66.7331 78.7129 66.418 78.7238 66.1041 78.7348C64.6893 78.7842 64.3479 78.0081 64.3149 77.0626C64.2985 76.591 64.282 76.1195 64.4279 75.7984L65.6846 75.7546C66.6275 75.7216 67.5648 75.5327 67.5318 74.5872C67.5044 73.8024 66.8589 73.3505 66.0731 73.3779C63.8735 73.4547 63.1646 75.6875 63.2195 77.2594C63.269 78.6764 64.0769 79.2789 65.1767 79.2405C65.9614 79.2131 66.5848 79.0328 66.8944 78.8646L66.8845 78.549ZM75.3413 77.4645C75.0384 77.791 74.291 78.9199 73.662 78.9419C73.3481 78.9528 73.1857 78.8 73.1747 78.4867L73.1472 77.6996L74.2006 71.8316L74.1841 71.36C74.1676 70.8884 73.8537 70.8994 73.2248 70.9214L73.3707 70.6004L75.2509 70.3785L74.0889 77.6668L74.0999 77.98C74.1054 78.1384 74.1054 78.1383 74.2623 78.1329C74.4193 78.1274 74.8748 77.6393 75.1777 77.3128L75.3413 77.4645ZM77.5505 73.1334C77.8589 72.9641 78.3144 72.476 78.2979 72.0044C78.2869 71.6889 77.8204 71.8626 77.7985 71.2338C77.7875 70.9206 78.0904 70.5929 78.5623 70.5765C78.8762 70.5655 79.2023 70.87 79.2188 71.3416C79.2463 72.1287 78.3254 72.7915 78.0225 73.1169L77.5505 73.1334ZM81.7432 71.5682L81.7267 71.0966C81.7103 70.625 81.3964 70.636 80.7674 70.658L80.9134 70.337L82.9505 70.1096L81.9026 76.1337C82.3361 75.0157 83.3578 72.7732 84.4587 72.7348C84.9307 72.7183 85.2556 73.0228 85.2721 73.4944C85.2776 73.6527 85.1316 73.9715 85.1426 74.287L84.6181 77.2991C84.6236 77.4574 84.4721 77.6178 84.4721 77.6178C84.4776 77.7761 84.6346 77.7707 84.6346 77.7707C84.9485 77.7597 85.404 77.2716 85.7069 76.9451L85.8705 77.098C85.5676 77.4244 84.6632 78.5589 84.0343 78.5808C83.7204 78.5918 83.5568 78.439 83.5459 78.1257C83.5348 77.8102 83.5239 77.4958 83.6765 77.3331L84.201 74.321C84.1954 74.1627 84.3469 74 84.3415 73.844C84.3333 73.7622 84.2957 73.6863 84.2357 73.6302C84.1757 73.5742 84.0974 73.5419 84.0154 73.5394C83.0726 73.5724 81.7853 77.2418 81.5142 78.5114L80.5714 78.5444L81.7432 71.5682ZM88.3729 76.6958C88.3344 75.592 88.7185 73.0593 89.9752 73.0154C90.6042 72.9935 90.7764 73.4596 90.8039 74.2467C90.8424 75.3482 90.4638 78.0381 89.2071 78.082C88.7362 78.0996 88.4059 77.639 88.3729 76.6958ZM89.2193 78.3986C91.1049 78.3328 91.9762 76.2529 91.9213 74.6798C91.8774 73.4211 91.3723 72.491 89.9587 72.5404C88.073 72.6063 87.2072 74.8444 87.2621 76.4164C87.3006 77.519 87.9625 78.4425 89.2193 78.3986ZM94.2515 73.8104C94.2459 73.652 94.3975 73.4917 94.3919 73.3333L94.2295 73.1805C93.9156 73.1914 93.4601 73.6795 93.1572 74.006L93.0002 74.0115C93.2977 73.5289 94.2019 72.3922 94.8309 72.3703C95.1448 72.3593 95.3139 72.6693 95.3249 72.9837C95.3304 73.142 95.3414 73.4576 95.1954 73.7763L95.0659 74.5689C95.3634 74.0863 95.9317 72.3307 96.8746 72.2978C97.1885 72.2868 97.3576 72.5968 97.3685 72.9112C97.3796 73.2267 97.2336 73.5466 96.9186 73.5576C96.6035 73.5686 96.4411 73.418 96.2842 73.4235C95.9703 73.4345 95.0769 74.8821 94.5579 78.0525L93.6151 78.0854L94.2515 73.8104ZM100.484 76.5865C100.181 76.913 99.4334 78.0419 98.8045 78.0639C98.4906 78.0749 98.3281 77.922 98.3172 77.6088L98.2897 76.8216L99.343 70.9536L99.3265 70.482C99.3101 70.0104 98.9962 70.0214 98.3672 70.0434L98.5132 69.7224L100.393 69.5005L99.2325 76.7887L99.2434 77.102C99.249 77.2603 99.249 77.2603 99.4059 77.2548C99.5629 77.2493 100.018 76.7613 100.321 76.4348L100.484 76.5865ZM102.83 76.1909C102.792 75.0872 103.333 72.549 104.59 72.5051C105.06 72.4886 105.39 72.9493 105.417 73.7364C105.456 74.8379 105.078 77.5278 103.82 77.5717C103.351 77.5892 102.863 77.1341 102.83 76.1909ZM103.832 77.8883C105.561 77.8279 106.588 75.7426 106.533 74.1696C106.489 72.9109 105.83 71.9862 104.573 72.0301C102.687 72.0959 101.82 74.3341 101.875 75.9061C101.914 77.0087 102.418 77.9377 103.832 77.8883ZM108.965 76.133C108.921 74.8743 109.775 72.3251 110.874 72.2867C111.033 72.2812 111.509 72.4208 111.531 73.0496C111.569 74.1511 110.568 77.0236 109.469 77.062C109.154 77.073 108.992 76.9201 108.965 76.133ZM112.591 71.9097L111.649 71.9426L111.666 72.4142C111.497 72.1065 111.173 71.8007 110.702 71.8172C108.972 71.8776 107.824 75.07 107.868 76.3286C107.89 76.9586 108.076 77.7401 109.02 77.7072C110.276 77.6633 110.856 76.2243 110.99 75.5889L111.148 75.5834L110.748 77.6468C110.612 78.2822 110.349 79.7079 109.405 79.7409C108.619 79.7683 108.743 78.8197 108.115 78.8416C107.803 78.8525 107.497 79.1768 107.508 79.4935C107.525 79.965 108.159 80.1014 108.945 80.074C110.989 80.0026 111.421 78.8847 111.69 77.6151L112.591 71.9097ZM115.171 73.7105C115.308 73.0751 115.745 72.1155 116.689 72.0825C117.002 72.0716 117.329 72.3738 117.34 72.6905C117.368 73.4753 116.744 73.6556 116.274 73.6721L115.171 73.7105ZM117.639 76.7766C117.489 76.9404 117.174 76.9514 116.861 76.9623C115.446 77.0117 115.104 76.2356 115.071 75.2902C115.054 74.8186 115.038 74.347 115.185 74.026L116.441 73.9821C117.385 73.9491 118.322 73.7602 118.289 72.8147C118.261 72.0299 117.616 71.578 116.83 71.6055C114.63 71.6823 113.921 73.915 113.976 75.4869C114.026 76.9039 114.834 77.5064 115.934 77.468C116.719 77.4406 117.343 77.2603 117.651 77.0921L117.639 76.7766ZM120.649 72.8885L120.633 72.417C120.633 72.417 120.627 72.2586 120.469 72.2642C120.314 72.2696 119.702 72.7631 119.397 73.0897L119.241 73.0951C119.696 72.6071 120.442 71.4759 121.072 71.4539C121.385 71.443 121.554 71.753 121.565 72.0674C121.57 72.2257 121.581 72.5412 121.434 72.86L121.304 73.6526C121.602 73.1701 122.171 71.4144 123.112 71.3815C123.427 71.3705 123.752 71.6751 123.763 71.9895C123.774 72.305 123.472 72.6303 123.156 72.6413C122.843 72.6523 122.838 72.4962 122.68 72.5017C122.365 72.5127 121.315 73.9659 120.796 77.1363L119.854 77.1692L120.649 72.8885ZM127.041 75.6591C126.737 75.9856 125.834 77.12 125.205 77.142C124.89 77.153 124.728 77.0001 124.717 76.6868C124.706 76.3713 124.851 76.0515 124.846 75.8943L125.365 72.7239L125.343 72.094C125.03 72.1049 124.576 72.5929 124.27 72.9195L124.115 72.9249C124.411 72.4424 125.315 71.3057 125.943 71.2838C126.101 71.2783 126.427 71.5828 126.438 71.8972C126.444 72.0555 126.297 72.3766 126.308 72.6898L125.789 75.8602C125.794 76.0186 125.641 76.179 125.641 76.179C125.647 76.3373 125.805 76.3318 125.805 76.3318C126.118 76.3209 126.574 75.8328 126.877 75.5063L127.041 75.6591ZM125.411 69.5712C125.4 69.2579 125.704 68.9302 126.175 68.9138C126.487 68.9029 126.814 69.2074 126.825 69.5217C126.836 69.8373 126.532 70.1627 126.219 70.1736C125.749 70.1889 125.422 69.8867 125.411 69.5712ZM129.628 73.2057C129.606 72.5758 130.046 71.6161 130.988 71.5832C131.458 71.5668 131.784 71.869 131.796 72.1857C131.823 72.9705 131.043 73.1563 130.572 73.1727L129.628 73.2057ZM132.096 76.2718C131.855 76.395 131.587 76.4587 131.316 76.4575C129.743 76.5125 129.403 75.7363 129.37 74.7909C129.354 74.3193 129.495 73.8422 129.484 73.5266L130.741 73.4827C131.683 73.4499 132.777 73.2554 132.744 72.31C132.716 71.5251 131.916 71.0786 131.129 71.1061C128.93 71.1829 128.221 73.4156 128.276 74.9876C128.325 76.4046 129.133 77.0071 130.389 76.9632C131.175 76.9358 131.64 76.761 131.951 76.5928L132.096 76.2718ZM138.977 75.0849C138.939 73.9834 139.631 71.2825 140.889 71.2386C141.202 71.2277 141.529 71.5299 141.545 72.0015C141.584 73.103 140.583 75.9754 139.481 76.0139C139.325 76.0193 139.005 75.872 138.977 75.0849ZM141.031 75.3291C140.878 75.493 140.889 75.8062 140.9 76.1217C140.906 76.2778 141.075 76.5878 141.387 76.5769C142.016 76.5549 142.764 75.426 143.224 75.094L143.06 74.9412C142.758 75.2676 142.146 75.7612 141.988 75.7667C141.988 75.7667 141.832 75.7721 141.826 75.6138C141.826 75.6138 141.821 75.4578 141.971 75.2951L143.133 68.0068L141.095 68.2342L141.106 68.5498C141.579 68.5332 141.892 68.5223 141.908 68.9939L141.925 69.4655L141.678 71.365C141.509 71.0573 141.183 70.7516 140.554 70.7736C138.983 70.8284 137.837 74.0208 137.881 75.2794C137.903 75.9093 138.088 76.6909 139.03 76.6581C140.13 76.6197 140.86 75.0168 141.002 74.5397L141.16 74.5342L141.031 75.3291ZM145.657 72.646C145.793 72.0105 146.231 71.0509 147.017 71.0235C147.488 71.007 147.811 71.3094 147.822 71.626C147.85 72.4108 147.229 72.5911 146.756 72.6076L145.657 72.646ZM148.123 75.7121C147.971 75.876 147.658 75.8869 147.345 75.8978C145.931 75.9472 145.588 75.1711 145.555 74.2257C145.539 73.7541 145.522 73.2825 145.669 72.9614L146.926 72.9176C147.868 72.8847 148.806 72.6956 148.773 71.7502C148.746 70.9654 148.1 70.5135 147.314 70.5409C145.115 70.6177 144.406 72.8504 144.461 74.4224C144.51 75.8394 145.318 76.4419 146.418 76.4035C147.204 76.376 147.827 76.1957 148.136 76.0276L148.123 75.7121ZM151.409 75.1252C151.359 73.7082 152.365 70.9929 153.465 70.9545C153.78 70.9435 153.953 71.412 153.969 71.8835C154.018 73.2983 153.165 75.8497 152.065 75.8881C151.593 75.9046 151.419 75.4385 151.409 75.1252ZM148.699 78.6858L151.842 78.576L151.837 78.4176C151.366 78.4341 150.895 78.4505 150.873 77.8206C150.867 77.6623 150.862 77.5074 151.015 77.3435L151.115 75.765L151.274 75.7595C151.443 76.0672 151.605 76.2201 152.234 76.1981C153.963 76.1377 155.12 73.2598 155.066 71.6867C155.033 70.7435 154.543 70.2862 153.914 70.3082C152.814 70.3466 151.928 71.9548 151.78 72.2736L151.922 71.7965L151.894 71.0094C151.884 70.6961 151.714 70.385 151.402 70.3959C150.773 70.4179 150.025 71.5491 149.571 72.0371L149.884 72.0262C150.031 71.7051 150.642 71.2116 150.8 71.2061C150.956 71.2007 150.962 71.359 150.962 71.359L150.978 71.8306L150.071 77.3776C149.94 78.1702 149.638 78.4956 148.694 78.5285L148.699 78.6858ZM160.152 73.2426C159.73 74.6761 158.675 75.9743 157.731 76.0073C157.26 76.0237 156.936 75.7191 156.914 75.0892C156.909 74.9332 157.05 74.4538 157.039 74.1405L157.578 71.6001L157.556 70.9702C157.243 70.9811 156.789 71.4692 156.484 71.7957L156.325 71.8012C156.624 71.3187 157.527 70.182 158.156 70.16C158.471 70.149 158.64 70.459 158.651 70.7734C158.657 70.9318 158.51 71.2528 158.521 71.5661L157.991 74.4198C157.996 74.5781 157.849 74.8992 157.849 74.8992C157.855 75.0552 158.018 75.2069 158.175 75.2014C158.959 75.1741 160.594 72.4368 160.675 70.2295L161.619 70.1965L160.829 74.6366L160.84 74.9498C160.845 75.1082 160.845 75.1082 161.004 75.1026C161.162 75.0971 161.773 74.6036 162.076 74.2771L162.239 74.43C161.78 74.7619 161.032 75.8909 160.403 75.9128C160.09 75.9237 159.927 75.7709 159.916 75.4577C159.905 75.1421 159.894 74.8278 160.047 74.6651L160.152 73.2426ZM166.167 74.2928C165.707 74.6248 164.96 75.7537 164.333 75.7756C164.018 75.7866 163.854 75.6338 163.843 75.3205C163.832 75.005 163.821 74.6906 163.974 74.5279L164.493 71.3575L164.476 70.8859C164.476 70.8859 164.471 70.7276 164.313 70.7331C164.157 70.7386 163.7 71.2267 163.398 71.5531L163.24 71.5586C163.539 71.076 164.442 69.9394 164.914 69.9229C165.229 69.9119 165.396 70.222 165.407 70.5364L165.434 71.3235L164.918 74.4938C164.765 74.6577 164.77 74.8126 164.77 74.8126C164.776 74.9709 164.934 74.9654 164.934 74.9654C165.09 74.9599 165.701 74.4664 166.006 74.1399L166.167 74.2928ZM164.54 68.2047C164.529 67.8915 164.83 67.5639 165.147 67.5529C165.617 67.5364 165.941 67.841 165.952 68.1554C165.963 68.4709 165.661 68.7963 165.191 68.8127C164.874 68.8226 164.551 68.5203 164.54 68.2047ZM170.783 71.2964C170.761 70.6665 170.429 70.2059 169.645 70.2333C169.172 70.2498 168.712 70.5795 168.734 71.2094C168.772 72.3109 170.81 72.0812 170.865 73.6566C170.915 75.0736 169.831 75.5836 168.417 75.633C167.788 75.6549 167.311 75.5131 167.154 75.5185L167.263 74.096L167.576 74.0851C167.592 74.5589 167.778 75.3382 168.72 75.3054C169.348 75.2834 169.96 74.7899 169.932 74.0028C169.894 72.9013 167.852 72.9726 167.803 71.5578C167.764 70.4541 168.684 69.7924 169.784 69.754C170.413 69.732 170.889 69.8739 171.21 70.0201L171.096 71.2843L170.783 71.2952L170.783 71.2964ZM175.476 75.0705C176.42 75.0376 176.565 74.7189 176.853 73.9197L177.501 69.9589L177.468 69.0135C177.457 68.7002 177.294 68.5474 176.823 68.5639L176.35 68.5804L176.344 68.4221L178.058 67.8901L178.684 67.8682L177.793 73.8868C177.643 74.0506 177.648 74.2078 177.654 74.3638C177.67 74.8377 178.147 74.9773 178.459 74.9664L178.465 75.1247L175.324 75.2344L175.476 75.0705ZM182.215 69.7943C182.193 69.1644 182.468 68.0508 183.567 68.0124C184.04 67.9959 184.522 68.295 184.55 69.0833C184.583 70.0264 184.139 70.8311 183.196 70.8641C182.568 70.8848 182.243 70.5803 182.215 69.7943ZM182.716 75.1336C184.289 75.0787 185.198 74.1004 185.148 72.6857C185.11 71.5819 184.47 71.2906 183.993 71.1487C184.93 70.9597 185.7 70.4584 185.651 69.0437C185.612 67.9399 184.81 67.4958 183.71 67.5342C182.139 67.589 181.067 68.4145 181.111 69.6743C181.144 70.6175 181.626 70.9166 182.108 71.2145C181.166 71.2474 180.412 72.2203 180.456 73.4802C180.5 74.74 181.302 75.183 182.716 75.1336ZM181.561 73.5978C181.523 72.4963 181.955 71.3784 182.899 71.3454C183.528 71.3235 184.172 71.7731 184.2 72.5602C184.238 73.6617 183.798 74.6237 182.698 74.6621C181.915 74.6895 181.583 74.2266 181.561 73.5978ZM190.96 67.9117L188.76 67.9885C187.818 68.0214 187.677 68.4985 187.542 69.1339L187.229 69.1448L187.487 67.5608L192.045 67.4016L192.062 67.8732L188.056 74.7886L186.954 74.8271L190.96 67.9117ZM193.883 70.4897C194.033 70.3259 194.343 70.1577 195.128 70.1303C196.384 70.0865 197.039 70.8516 197.078 71.9531C197.122 73.2118 196.23 74.6629 194.186 74.7342C193.086 74.7727 192.291 74.4845 191.975 74.4955L192.117 74.0184C192.275 74.0129 192.914 74.3065 193.699 74.2791C195.113 74.2297 196.022 73.2514 195.978 71.9915C195.945 71.0484 195.3 70.5988 194.672 70.6207C193.888 70.648 193.589 71.1307 193.437 71.2922L192.81 71.3141L193.615 67.3479L197.386 67.2162L197.244 67.6933L194.417 67.7921L193.883 70.4897Z" fill="#98E090"/>
</svg>
