<svg width="241" height="27" viewBox="0 0 241 27" fill="none" xmlns="http://www.w3.org/2000/svg">
<path d="M13.2737 14.5327C13.3029 15.3705 13.0843 15.7409 12.304 15.7681L6.03503 15.9871L5.84584 10.5693L12.1141 10.3504C12.8652 10.3242 13.1384 10.6787 13.1657 11.46L13.2737 14.5327ZM19.7685 25.6749C18.9621 24.9357 18.6202 24.2774 18.2434 23.4242L15.797 18.0068C17.7248 17.6886 18.6153 16.6863 18.5551 14.9626L18.4225 11.1657C18.3545 9.21722 17.1514 7.89816 14.723 7.98296L-2.07746e-05 8.4971C0.194582 9.10201 0.38721 9.65039 0.425932 10.7592L0.889363 24.0302C0.92831 25.1455 0.774538 25.7098 0.62319 26.3435L6.73619 26.13C6.541 25.5084 6.34826 24.9568 6.30929 23.8409L6.11445 18.2613L10.1596 18.12L13.6122 25.8899L19.7685 25.6749ZM22.6474 25.5744C22.7988 24.9413 22.9526 24.3776 22.9137 23.2637L22.4506 10.0017C22.4117 8.88707 22.219 8.33612 22.0242 7.728L28.1366 7.51455C27.9847 8.13413 27.8309 8.69782 27.8699 9.81246L28.333 23.0744C28.3719 24.1878 28.5646 24.74 28.7598 25.361L22.6474 25.5744ZM46.9117 24.7309L36.1058 25.1083C33.6267 25.1949 32.4274 23.904 32.3515 21.7319L31.9728 10.8887C31.897 8.71664 33.0034 7.3446 35.4824 7.25803L46.2876 6.8807L46.8442 9.55767C46.1114 9.30346 45.3554 9.18963 44.1992 9.23001L38.3308 9.43494C37.7243 9.45612 37.3563 9.6941 37.3817 10.4201L37.7799 21.8221C37.8052 22.5481 38.1882 22.7598 38.7954 22.7386L44.6631 22.5337C45.8193 22.4934 46.5655 22.3264 47.2788 22.0217L46.9117 24.7309ZM63.3986 24.1514C63.5506 23.5176 63.7044 22.9539 63.6654 21.838L63.4706 16.2584L56.1447 16.5142L56.3395 22.0938C56.3785 23.2091 56.5719 23.7613 56.7678 24.3829L50.6534 24.5964C50.8048 23.9627 50.9586 23.399 50.9196 22.2831L50.4566 9.02372C50.4177 7.90908 50.2249 7.35813 50.0302 6.75001L56.1445 6.53649C55.9927 7.15672 55.8376 7.71981 55.8765 8.83445L56.0653 14.24L63.3905 13.9842L63.2017 8.57865C63.1628 7.46401 62.9701 6.91306 62.7747 6.30496L68.8883 6.09147C68.7365 6.71169 68.5827 7.27474 68.6216 8.38938L69.0847 21.6488C69.1236 22.764 69.3164 23.3163 69.5116 23.9379L63.3986 24.1514ZM84.5277 16.055L78.2848 16.273L81.141 9.4091L84.5277 16.055ZM94.3807 23.0694C93.8443 22.6302 93.2888 21.6442 92.8551 20.8251L84.9709 5.52985L78.9299 5.74081L79.7512 6.8873L73.5472 21.4993C73.2803 22.1487 72.7329 23.0587 72.2105 23.8436L75.7658 23.7195C75.7352 22.8419 75.9067 21.9457 76.1189 21.4095L77.2653 18.5856L85.6754 18.2919L87.0454 21.028C87.3868 21.7107 87.5844 22.4005 87.6 22.8482C87.606 23.0198 87.61 23.1335 87.5587 23.3077L94.3807 23.0694ZM109.722 11.1647C109.751 12.0024 109.533 12.3728 108.752 12.4001L102.484 12.619L102.294 7.20128L108.563 6.98239C109.314 6.95614 109.587 7.31068 109.614 8.09189L109.722 11.1647ZM116.217 22.3069C115.409 21.5677 115.069 20.9094 114.691 20.0562L112.244 14.6388C114.172 14.3206 115.063 13.3182 115.003 11.5945L114.87 7.79771C114.802 5.84918 113.599 4.53015 111.171 4.61493L96.4485 5.12905C96.6431 5.73396 96.8357 6.28233 96.8745 7.39119L97.3379 20.6621C97.3768 21.7774 97.2231 22.3417 97.0717 22.9755L103.185 22.762C102.99 22.1404 102.797 21.5888 102.758 20.4729L102.563 14.8932L106.607 14.752L110.06 22.5219L116.217 22.3069ZM132.226 18.5227C132.252 19.2506 131.882 19.4873 131.273 19.5086L124.783 19.7353L124.318 6.43284L130.808 6.17919C131.416 6.15795 131.802 6.36832 131.827 7.09557L132.226 18.5227ZM137.636 18.0527L137.256 7.18771C137.181 5.02396 135.982 3.74914 133.503 3.83572L118.473 4.36058C118.667 4.95779 118.86 5.49974 118.898 6.5951L119.363 19.9258C119.402 21.0346 119.248 21.5945 119.096 22.2115L134.126 21.6866C136.605 21.5994 137.711 20.2287 137.635 18.0534L137.636 18.0527ZM167.411 20.3809C167.561 19.7478 167.716 19.1848 167.677 18.0701L167.224 5.08635L167.166 5.08837L161.368 20.5912L157.612 20.7224L150.864 5.65764L150.806 5.65967L151.259 18.6434C151.298 19.7574 151.492 20.309 151.688 20.9299L148.493 21.0415C148.645 20.4084 148.8 19.8453 148.762 18.7307L148.298 5.46935C148.259 4.35472 148.065 3.80317 147.87 3.19636L155.168 2.94151L160.91 15.7129L165.835 2.56838L172.743 2.32715C172.589 2.94613 172.436 3.5098 172.475 4.6238L172.938 17.8864C172.977 19.0004 173.17 19.552 173.365 20.1729L167.411 20.3809ZM177.71 20.0212C177.861 19.3882 178.015 18.8251 177.976 17.7104L177.513 4.44915C177.474 3.33451 177.281 2.78294 177.087 2.17544L183.199 1.96201C183.046 2.58098 182.893 3.14529 182.932 4.25993L183.395 17.5212C183.434 18.6352 183.626 19.1868 183.822 19.8078L177.71 20.0212ZM203.362 19.1293L188.201 19.6587C188.354 19.0429 188.509 18.4818 188.47 17.3723L188.006 4.08723C187.967 2.97067 187.774 2.41846 187.578 1.80974L193.692 1.59622C193.539 2.21714 193.384 2.78149 193.423 3.89806L193.887 17.1851L201.027 16.9357C202.271 16.8923 203.045 16.698 203.73 16.4219L203.362 19.1293ZM221.687 18.4894L206.526 19.0188C206.679 18.403 206.832 17.8419 206.793 16.7325L206.329 3.44738C206.29 2.33081 206.098 1.77856 205.903 1.16982L212.015 0.956369C211.863 1.57724 211.709 2.14157 211.748 3.25813L212.212 16.5451L219.352 16.2958C220.596 16.2524 221.369 16.0581 222.055 15.782L221.687 18.4894ZM240.01 17.8495L224.851 18.3789C225.002 17.7632 225.157 17.202 225.118 16.0925L224.654 2.7914C224.615 1.6819 224.422 1.13354 224.228 0.52925L239.387 -0.000110825L239.943 2.67622C239.241 2.44922 238.454 2.30818 237.212 2.35156L230.072 2.60089L230.261 8.01925L236.648 7.79621C237.661 7.76084 238.579 7.56155 239.207 7.28749L239.315 10.4008C238.67 10.1705 237.741 10.0338 236.728 10.0692L230.341 10.2922L230.537 15.9039L237.677 15.6546C238.919 15.6112 239.694 15.415 240.378 15.1383L240.01 17.8495Z" fill="#98E090" fill-opacity="0.98"/>
</svg>
