<svg width="160" height="48" viewBox="0 0 160 48" fill="none" xmlns="http://www.w3.org/2000/svg">
<path fill-rule="evenodd" clip-rule="evenodd" d="M0.0608304 33.2922C1.07813 18.2096 17.4167 -0.511268 33.1676 0.0105745C36.4926 0.119054 37.9057 1.02928 40.7416 2.25731C42.567 3.05102 44.6324 1.99875 46.3565 1.34645L40.8754 9.58195L40.7675 6.49329C40.6899 4.27059 38.9461 1.73829 36.7249 1.24415C32.0469 0.202917 25.6987 1.94545 21.6497 4.37353C11.7905 10.2712 3.50388 27.4757 5.26356 38.8986C7.02346 50.3216 19.9705 45.5722 26.0037 40.9209C28.2883 39.1567 28.3646 38.4292 29.7666 36.1139C33.0305 30.6916 37.8687 24.6932 44.304 23.1209C47.3654 22.3709 51.7266 22.4745 51.6088 26.6641C51.8225 26.6872 51.8933 26.6744 52.05 26.5161C52.403 26.1568 53.0877 23.9492 53.5186 23.7801L57.5297 23.7517C57.6032 23.8206 57.1949 24.6407 57.1189 24.7969C54.715 29.8317 51.951 34.7162 49.609 39.7795C48.6266 41.8964 46.9404 45.9673 51.1836 44.737C54.7229 43.7149 59.2314 39.0358 61.6115 36.2271C64.8404 32.4189 66.8873 27.6207 69.6161 23.4523L73.5213 23.3159C73.3793 23.9027 72.7335 24.609 72.62 25.1438C72.5855 25.3185 72.6027 25.5016 72.7762 25.5261C72.8995 25.5416 74.6579 24.4404 75.0174 24.2645C76.6253 23.4836 79.2267 22.3611 80.8799 23.4567C82.3248 24.4067 82.2698 27.1959 81.2674 28.4457C84.4673 27.0068 87.7374 24.0754 89.9266 21.3244C91.9701 18.7622 93.3183 15.2032 95.2557 12.512L99.2827 12.3714L94.2208 21.5622L98.9581 21.3968C98.9796 21.7227 98.8909 22.1033 98.5384 22.1871C97.6809 22.37 94.0169 22.1411 93.6397 22.389L84.0565 39.098C82.0624 42.7708 84.2207 43.7977 87.6714 42.8607C90.0759 42.2051 93.3484 38.7631 95.1533 36.934C96.7528 35.3265 98.5753 33.4044 100.028 31.6795C102.437 28.829 103.933 25.6937 105.719 22.4567L109.626 22.076L100.918 39.7234C99.7868 44.5507 104.357 43.0643 106.754 41.337C111.827 37.6788 113.842 31.4122 117.927 26.8086C120.732 23.6482 125.428 19.982 129.864 20.2149C134.056 20.436 134.314 24.0208 132.8 27.1974C130.794 31.4223 125.965 33.6321 121.608 34.4989C121.002 34.6221 117.716 35.0023 117.569 35.1912C116.391 38.3867 116.381 42.1543 120.754 42.0424C127.28 41.8859 137.152 32.6089 141.271 27.7998C141.739 27.2527 142.385 26.5364 142.782 25.9815C143.838 24.5054 144.52 22.5418 145.647 21.0733L150.06 20.9192L147.307 26.4256C147.989 26.4835 148.348 25.6949 148.8 25.2809C150.729 23.5088 155.011 19.8984 157.771 20.6898C159.443 21.1725 159.775 22.5295 159.659 24.1261C159.437 27.094 156.091 26.9454 155.94 24.3885C155.846 22.8503 157.293 21.8299 158.705 22.4237C157.149 20.0282 154.034 22.158 152.34 23.3708C145.116 28.5231 143.279 34.4061 139.158 41.7367C138.947 42.1114 138.769 42.5158 138.465 42.8326L133.534 43.0047L133.533 42.9739L140.632 29.8538C137.282 33.6765 133.763 37.3512 129.419 40.055C123.961 43.4408 111.109 48.2386 112.058 37.0375C109.2 40.6897 105.409 44.6915 100.341 44.3992C98.7734 44.311 97.044 43.36 96.612 41.752C95.8652 38.9708 98.7146 35.9515 99.6439 33.4794C96.806 36.5593 94.0383 39.9029 90.6418 42.4001C87.968 44.3615 85.0291 45.4337 81.7148 44.4674C78.5961 43.5656 78.9213 40.9405 80.1158 38.4999L88.5409 23.8222C86.785 25.5985 83.2328 29.4584 80.6142 29.5093C76.8793 29.5886 77.3443 24.0098 80.8973 25.1209C80.3618 22.8734 77.8016 24.0238 76.3615 24.6662C74.3514 25.5633 72.3808 27.0005 70.8937 28.6245L62.7298 44.9878C62.6344 45.1643 62.4757 45.2617 62.2851 45.3194C61.8527 45.4365 58.1723 45.5244 58.0207 45.3666L61.7313 37.8967C58.2249 41.6125 52.8878 47.6074 47.1431 45.6846C45.7562 45.2226 44.7754 44.1751 44.6012 42.681C44.5424 42.1625 44.6578 41.6987 44.61 41.2003C43.4437 42.1188 42.2767 43.0171 41.0039 43.7965C38.6976 45.2245 35.9021 46.6082 33.1258 46.5011C29.6578 46.367 27.5239 44.0223 28.1113 40.4904C24.3813 43.9075 19.2304 46.19 14.2761 47.1185C4.18511 49.0021 -0.604144 43.0441 0.0608304 33.2922ZM50.6833 28.9624C51.4604 25.9137 50.6489 23.6142 47.1222 24.1251L47.1325 24.1357C42.454 24.8198 35.3151 33.8677 33.4816 38.0867C32.6824 39.9215 31.613 44.482 34.6282 44.734C38.1424 45.0295 42.2014 42.0292 44.5555 39.64C46.4583 37.7054 50.0231 31.5784 50.6833 28.9624ZM128.628 20.8911L128.639 20.8907C126.122 21.244 123.393 24.5343 122.041 26.5314C121.452 27.4092 118.487 32.6357 118.652 33.326C118.818 34.0142 120.376 33.5525 120.9 33.4319C125.103 32.5094 129.86 29.1072 130.781 24.655C131.12 23.0098 130.821 20.5797 128.628 20.8911Z" fill="#98E090"/>
<path d="M110.418 13.0343C112.815 12.4505 113.456 15.6948 111.53 16.691C108.747 18.1251 107.769 13.6882 110.418 13.0343Z" fill="#98E090"/>
</svg>
