<svg width="161" height="81" viewBox="0 0 161 81" fill="none" xmlns="http://www.w3.org/2000/svg">
<path d="M70.3397 77.4341L65.5378 77.6018L59.1085 59.6786L51.5727 78.8913L42.8469 60.2564L37.8158 78.5699L33.0129 78.7376L41.8138 47.8085L51.2432 67.6974L59.4626 46.867L70.3397 77.4341Z" fill="#98E090"/>
<path d="M102.51 48.4494C109.509 42.8968 119.233 44.5162 124.802 51.1827L121.229 54.0283C119.631 51.841 117.09 50.2545 114.424 49.7183C109.725 48.7863 105.087 50.765 102.644 54.8795C97.7564 63.0785 104.16 73.3094 113.706 72.1542C118.08 71.6259 122.267 68.0592 123.099 63.7063L112.571 64.074L112.418 59.6745L127.879 59.1346L127.88 59.1544C129.133 71.5035 116.227 80.7238 104.987 74.9148C94.811 69.6574 93.5276 55.5735 102.51 48.4494Z" fill="#98E090"/>
<path fill-rule="evenodd" clip-rule="evenodd" d="M14.7201 48.4701C26.9568 47.6673 35.4457 60.9616 29.5938 71.7521C24.152 81.7976 10.2226 82.9332 3.24984 73.8288C-4.38143 63.8645 2.23116 49.3032 14.7204 48.481L14.7201 48.4701ZM15.0059 52.8551C1.13731 53.6946 1.05875 74.992 15.2419 75.6134C30.8375 76.2969 30.5041 51.9185 15.0059 52.8551Z" fill="#98E090"/>
<path fill-rule="evenodd" clip-rule="evenodd" d="M160.416 74.0249L160.426 74.0245L160.435 74.2879L155.367 74.4044L151.888 68.3141L136.173 68.8936L133.241 75.2474L128.043 75.4289L143.122 43.0119L160.416 74.0249ZM138.076 64.4015L149.541 64.133L143.481 53.0074L138.076 64.4015Z" fill="#98E090"/>
<path d="M91.5557 50.8113L77.8268 51.2907L78.1245 59.8164L91.4586 59.3508L91.6123 63.7503L78.2781 64.2159L78.5759 72.7416L92.3048 72.2622L92.4584 76.6617L74.0691 77.3039L73.0127 47.054L91.4021 46.4118L91.5557 50.8113Z" fill="#98E090"/>
<path d="M70.7003 0.608375C79.8789 -1.48836 91.1232 1.81366 95.2623 10.8242C99.2588 19.535 95.1114 28.8752 87.9167 34.3231C88.8634 34.4219 89.8329 34.3073 90.7857 34.2943C91.0694 34.2844 91.3793 34.4153 91.7238 34.4033C92.8584 34.3636 94.1154 34.056 95.2937 34.1061C96.3985 32.9207 96.6264 30.7207 98.7437 30.9407L95.8984 37.1805L80.7001 37.7112C80.6422 37.5004 80.762 37.4355 80.8789 37.2996C82.5068 35.4057 84.543 33.883 86.1638 31.7864C90.3278 26.4038 92.1852 19.4574 90.2275 12.7762C86.0829 -1.32922 66.8732 -1.79571 62.0497 12.0138C59.4027 19.5865 62.3764 27.7547 67.7336 33.3022C69.1231 34.7457 71.3135 36.1718 72.4895 37.6025C72.5954 37.7307 72.749 37.7664 72.7065 38.0013L57.71 38.525L54.2335 32.505C56.3978 32.0234 56.8294 34.2113 58.0085 35.4389L65.3949 35.1809L62.7896 33.2013C49.9917 22.2907 54.316 4.35748 70.7003 0.608375Z" fill="#98E090"/>
</svg>
